<mxfile host="Electron" modified="2024-06-07T13:30:58.762Z" agent="Mozilla/5.0 (Windows NT 10.0; Win64; x64) AppleWebKit/537.36 (KHTML, like Gecko) draw.io/24.5.1 Chrome/124.0.6367.207 Electron/30.0.6 Safari/537.36" etag="BOUf4Hlx46oqxLUDrsAB" scale="1" border="0" version="24.5.1" type="device" pages="3">
  <diagram name="페이지-1" id="_krYkvb6Rmt5Yyjuqrx-">
    <mxGraphModel dx="1194" dy="657" grid="1" gridSize="10" guides="1" tooltips="1" connect="1" arrows="1" fold="1" page="1" pageScale="1" pageWidth="827" pageHeight="1169" math="0" shadow="0">
      <root>
        <mxCell id="0" />
        <mxCell id="1" parent="0" />
        <UserObject label="" plantUmlData="{&quot;data&quot;:&quot;@startuml\nskinparam backgroundcolor transparent\nskinparam boxpadding 10\nskinparam sequence {\n        participantpadding 20\n        groupbodybackgroundcolor transparent\n}\nactor \&quot;서비스 사용자\&quot; as u\nbox \&quot;FTTI 서비스\&quot;\n        participant \&quot;FTTI 앱\&quot; as app\n        participant \&quot;Firebase\&quot; as api\n        database \&quot;사용자 DB\&quot; as adb\n        database \&quot;스타일 DB\&quot; as db\n        database \&quot;FTTI DB\&quot; as fdb\nend box\n\n== FTTI 검사 ==\n\nu -&gt; app: 선호 스타일 선택\napp -&gt; api: 스타일 선택 정보\napi -&gt; adb: FTTI 저장\n\n== FTTI 조회 ==\n\nu -&gt; app++: \&quot;내 FTTI\&quot; 버튼 클릭\napp -&gt; api++: 사용자ID\napi -&gt; adb++: 사용자ID 조회\nreturn 사용자 FTTI\napi -&gt; fdb++: 사용자 FTTI 조회\nreturn FTTI 설명\nreturn FTTI 설명\nreturn FTTI 설명 페이지\n\n== 추천 스타일 조회 ==\n\nu -&gt; app++: \&quot;스타일 추천\&quot; 버튼 클릭\napp -&gt; api++: 사용자ID\napi -&gt; adb++: 사용자ID 조회\nreturn 사용자 FTTI\napi -&gt; db++: 사용자 FTTI 조회\nreturn 추천 스타일 ID\nreturn FTTI 설명\nreturn FTTI 설명 페이지\n\n\n@enduml&quot;,&quot;format&quot;:&quot;svg&quot;}" id="sGsj0JqU0HKwS_zfsCDE-5">
          <mxCell style="shape=image;noLabel=1;verticalAlign=top;aspect=fixed;imageAspect=0;image=data:image/svg+xml,PD94bWwgdmVyc2lvbj0iMS4wIiBlbmNvZGluZz0idXMtYXNjaWkiIHN0YW5kYWxvbmU9Im5vIj8+PHN2ZyB4bWxucz0iaHR0cDovL3d3dy53My5vcmcvMjAwMC9zdmciIHhtbG5zOnhsaW5rPSJodHRwOi8vd3d3LnczLm9yZy8xOTk5L3hsaW5rIiBjb250ZW50U3R5bGVUeXBlPSJ0ZXh0L2NzcyIgaGVpZ2h0PSI4NDRweCIgcHJlc2VydmVBc3BlY3RSYXRpbz0ibm9uZSIgc3R5bGU9IndpZHRoOjY3M3B4O2hlaWdodDo4NDRweDsiIHZlcnNpb249IjEuMSIgdmlld0JveD0iMCAwIDY3MyA4NDQiIHdpZHRoPSI2NzNweCIgem9vbUFuZFBhbj0ibWFnbmlmeSI+PGRlZnMvPjxnPjxyZWN0IGZpbGw9IiNEREREREQiIGhlaWdodD0iODMyLjk5MjIiIHN0eWxlPSJzdHJva2U6IzE4MTgxODtzdHJva2Utd2lkdGg6MC41OyIgd2lkdGg9IjQ4MSIgeD0iMTc0IiB5PSI2Ii8+PHRleHQgZmlsbD0iIzAwMDAwMCIgZm9udC1mYW1pbHk9InNhbnMtc2VyaWYiIGZvbnQtc2l6ZT0iMTMiIGZvbnQtd2VpZ2h0PSJib2xkIiBsZW5ndGhBZGp1c3Q9InNwYWNpbmciIHRleHRMZW5ndGg9IjcxIiB4PSIzNzkiIHk9IjE4LjI4OTEiPkZUVEkgJiM0OTQzNjsmIzQ4NzA4OyYjNDk4Mjg7PC90ZXh0PjxyZWN0IGZpbGw9IiNGRkZGRkYiIGhlaWdodD0iMTk1LjM5ODQiIHN0eWxlPSJzdHJva2U6IzE4MTgxODtzdHJva2Utd2lkdGg6MS4wOyIgd2lkdGg9IjEwIiB4PSIyMjQuNSIgeT0iMjgyLjM4MjgiLz48cmVjdCBmaWxsPSIjRkZGRkZGIiBoZWlnaHQ9IjE5NS4zOTg0IiBzdHlsZT0ic3Ryb2tlOiMxODE4MTg7c3Ryb2tlLXdpZHRoOjEuMDsiIHdpZHRoPSIxMCIgeD0iMjI0LjUiIHk9IjU0Ny42MDk0Ii8+PHJlY3QgZmlsbD0iI0ZGRkZGRiIgaGVpZ2h0PSIxMzkuNTcwMyIgc3R5bGU9InN0cm9rZTojMTgxODE4O3N0cm9rZS13aWR0aDoxLjA7IiB3aWR0aD0iMTAiIHg9IjM1My41IiB5PSIzMTAuMjk2OSIvPjxyZWN0IGZpbGw9IiNGRkZGRkYiIGhlaWdodD0iMTM5LjU3MDMiIHN0eWxlPSJzdHJva2U6IzE4MTgxODtzdHJva2Utd2lkdGg6MS4wOyIgd2lkdGg9IjEwIiB4PSIzNTMuNSIgeT0iNTc1LjUyMzQiLz48cmVjdCBmaWxsPSIjRkZGRkZGIiBoZWlnaHQ9IjI3LjkxNDEiIHN0eWxlPSJzdHJva2U6IzE4MTgxODtzdHJva2Utd2lkdGg6MS4wOyIgd2lkdGg9IjEwIiB4PSI0NjcuNSIgeT0iMzM4LjIxMDkiLz48cmVjdCBmaWxsPSIjRkZGRkZGIiBoZWlnaHQ9IjI3LjkxNDEiIHN0eWxlPSJzdHJva2U6IzE4MTgxODtzdHJva2Utd2lkdGg6MS4wOyIgd2lkdGg9IjEwIiB4PSI0NjcuNSIgeT0iNjAzLjQzNzUiLz48cmVjdCBmaWxsPSIjRkZGRkZGIiBoZWlnaHQ9IjI3LjkxNDEiIHN0eWxlPSJzdHJva2U6IzE4MTgxODtzdHJva2Utd2lkdGg6MS4wOyIgd2lkdGg9IjEwIiB4PSI1NDYuNSIgeT0iNjU5LjI2NTYiLz48cmVjdCBmaWxsPSIjRkZGRkZGIiBoZWlnaHQ9IjI3LjkxNDEiIHN0eWxlPSJzdHJva2U6IzE4MTgxODtzdHJva2Utd2lkdGg6MS4wOyIgd2lkdGg9IjEwIiB4PSI2MTguNSIgeT0iMzk0LjAzOTEiLz48bGluZSBzdHlsZT0ic3Ryb2tlOiMxODE4MTg7c3Ryb2tlLXdpZHRoOjAuNTtzdHJva2UtZGFzaGFycmF5OjUuMCw1LjA7IiB4MT0iNTMiIHgyPSI1MyIgeTE9Ijg0Ljg5ODQiIHkyPSI3NjEuMDA3OCIvPjxsaW5lIHN0eWxlPSJzdHJva2U6IzE4MTgxODtzdHJva2Utd2lkdGg6MC41O3N0cm9rZS1kYXNoYXJyYXk6NS4wLDUuMDsiIHgxPSIyMjkiIHgyPSIyMjkiIHkxPSI4NC44OTg0IiB5Mj0iNzYxLjAwNzgiLz48bGluZSBzdHlsZT0ic3Ryb2tlOiMxODE4MTg7c3Ryb2tlLXdpZHRoOjAuNTtzdHJva2UtZGFzaGFycmF5OjUuMCw1LjA7IiB4MT0iMzU4LjUiIHgyPSIzNTguNSIgeTE9Ijg0Ljg5ODQiIHkyPSI3NjEuMDA3OCIvPjxsaW5lIHN0eWxlPSJzdHJva2U6IzE4MTgxODtzdHJva2Utd2lkdGg6MC41O3N0cm9rZS1kYXNoYXJyYXk6NS4wLDUuMDsiIHgxPSI0NzIiIHgyPSI0NzIiIHkxPSI4NC44OTg0IiB5Mj0iNzYxLjAwNzgiLz48bGluZSBzdHlsZT0ic3Ryb2tlOiMxODE4MTg7c3Ryb2tlLXdpZHRoOjAuNTtzdHJva2UtZGFzaGFycmF5OjUuMCw1LjA7IiB4MT0iNTUxIiB4Mj0iNTUxIiB5MT0iODQuODk4NCIgeTI9Ijc2MS4wMDc4Ii8+PGxpbmUgc3R5bGU9InN0cm9rZTojMTgxODE4O3N0cm9rZS13aWR0aDowLjU7c3Ryb2tlLWRhc2hhcnJheTo1LjAsNS4wOyIgeDE9IjYyMyIgeDI9IjYyMyIgeTE9Ijg0Ljg5ODQiIHkyPSI3NjEuMDA3OCIvPjx0ZXh0IGZpbGw9IiMwMDAwMDAiIGZvbnQtZmFtaWx5PSJzYW5zLXNlcmlmIiBmb250LXNpemU9IjE0IiBsZW5ndGhBZGp1c3Q9InNwYWNpbmciIHRleHRMZW5ndGg9IjkxIiB4PSI1IiB5PSI4My4xNDg0Ij4mIzQ5NDM2OyYjNDg3MDg7JiM0OTgyODsgJiM0OTMyNDsmIzUwODU3OyYjNTEwODg7PC90ZXh0PjxlbGxpcHNlIGN4PSI1My41IiBjeT0iMTguNDE0MSIgZmlsbD0iI0UyRTJGMCIgcng9IjgiIHJ5PSI4IiBzdHlsZT0ic3Ryb2tlOiMxODE4MTg7c3Ryb2tlLXdpZHRoOjAuNTsiLz48cGF0aCBkPSJNNTMuNSwyNi40MTQxIEw1My41LDUzLjQxNDEgTTQwLjUsMzQuNDE0MSBMNjYuNSwzNC40MTQxIE01My41LDUzLjQxNDEgTDQwLjUsNjguNDE0MSBNNTMuNSw1My40MTQxIEw2Ni41LDY4LjQxNDEgIiBmaWxsPSJub25lIiBzdHlsZT0ic3Ryb2tlOiMxODE4MTg7c3Ryb2tlLXdpZHRoOjAuNTsiLz48dGV4dCBmaWxsPSIjMDAwMDAwIiBmb250LWZhbWlseT0ic2Fucy1zZXJpZiIgZm9udC1zaXplPSIxNCIgbGVuZ3RoQWRqdXN0PSJzcGFjaW5nIiB0ZXh0TGVuZ3RoPSI5MSIgeD0iNSIgeT0iNzczLjI0MjIiPiYjNDk0MzY7JiM0ODcwODsmIzQ5ODI4OyAmIzQ5MzI0OyYjNTA4NTc7JiM1MTA4ODs8L3RleHQ+PGVsbGlwc2UgY3g9IjUzLjUiIGN5PSI3ODMuNDkyMiIgZmlsbD0iI0UyRTJGMCIgcng9IjgiIHJ5PSI4IiBzdHlsZT0ic3Ryb2tlOiMxODE4MTg7c3Ryb2tlLXdpZHRoOjAuNTsiLz48cGF0aCBkPSJNNTMuNSw3OTEuNDkyMiBMNTMuNSw4MTguNDkyMiBNNDAuNSw3OTkuNDkyMiBMNjYuNSw3OTkuNDkyMiBNNTMuNSw4MTguNDkyMiBMNDAuNSw4MzMuNDkyMiBNNTMuNSw4MTguNDkyMiBMNjYuNSw4MzMuNDkyMiAiIGZpbGw9Im5vbmUiIHN0eWxlPSJzdHJva2U6IzE4MTgxODtzdHJva2Utd2lkdGg6MC41OyIvPjxyZWN0IGZpbGw9IiNFMkUyRjAiIGhlaWdodD0iMjguOTg0NCIgcng9IjIuNSIgcnk9IjIuNSIgc3R5bGU9InN0cm9rZTojMTgxODE4O3N0cm9rZS13aWR0aDowLjU7IiB3aWR0aD0iNjMiIHg9IjE5OCIgeT0iNTQuOTE0MSIvPjx0ZXh0IGZpbGw9IiMwMDAwMDAiIGZvbnQtZmFtaWx5PSJzYW5zLXNlcmlmIiBmb250LXNpemU9IjE0IiBsZW5ndGhBZGp1c3Q9InNwYWNpbmciIHRleHRMZW5ndGg9IjQ5IiB4PSIyMDUiIHk9Ijc1LjE0ODQiPkZUVEkgJiM1MDU0NTs8L3RleHQ+PHJlY3QgZmlsbD0iI0UyRTJGMCIgaGVpZ2h0PSIyOC45ODQ0IiByeD0iMi41IiByeT0iMi41IiBzdHlsZT0ic3Ryb2tlOiMxODE4MTg7c3Ryb2tlLXdpZHRoOjAuNTsiIHdpZHRoPSI2MyIgeD0iMTk4IiB5PSI3NjAuMDA3OCIvPjx0ZXh0IGZpbGw9IiMwMDAwMDAiIGZvbnQtZmFtaWx5PSJzYW5zLXNlcmlmIiBmb250LXNpemU9IjE0IiBsZW5ndGhBZGp1c3Q9InNwYWNpbmciIHRleHRMZW5ndGg9IjQ5IiB4PSIyMDUiIHk9Ijc4MC4yNDIyIj5GVFRJICYjNTA1NDU7PC90ZXh0PjxyZWN0IGZpbGw9IiNFMkUyRjAiIGhlaWdodD0iMjguOTg0NCIgcng9IjIuNSIgcnk9IjIuNSIgc3R5bGU9InN0cm9rZTojMTgxODE4O3N0cm9rZS13aWR0aDowLjU7IiB3aWR0aD0iNzAiIHg9IjMyMy41IiB5PSI1NC45MTQxIi8+PHRleHQgZmlsbD0iIzAwMDAwMCIgZm9udC1mYW1pbHk9InNhbnMtc2VyaWYiIGZvbnQtc2l6ZT0iMTQiIGxlbmd0aEFkanVzdD0ic3BhY2luZyIgdGV4dExlbmd0aD0iNTYiIHg9IjMzMC41IiB5PSI3NS4xNDg0Ij5GaXJlYmFzZTwvdGV4dD48cmVjdCBmaWxsPSIjRTJFMkYwIiBoZWlnaHQ9IjI4Ljk4NDQiIHJ4PSIyLjUiIHJ5PSIyLjUiIHN0eWxlPSJzdHJva2U6IzE4MTgxODtzdHJva2Utd2lkdGg6MC41OyIgd2lkdGg9IjcwIiB4PSIzMjMuNSIgeT0iNzYwLjAwNzgiLz48dGV4dCBmaWxsPSIjMDAwMDAwIiBmb250LWZhbWlseT0ic2Fucy1zZXJpZiIgZm9udC1zaXplPSIxNCIgbGVuZ3RoQWRqdXN0PSJzcGFjaW5nIiB0ZXh0TGVuZ3RoPSI1NiIgeD0iMzMwLjUiIHk9Ijc4MC4yNDIyIj5GaXJlYmFzZTwvdGV4dD48dGV4dCBmaWxsPSIjMDAwMDAwIiBmb250LWZhbWlseT0ic2Fucy1zZXJpZiIgZm9udC1zaXplPSIxNCIgbGVuZ3RoQWRqdXN0PSJzcGFjaW5nIiB0ZXh0TGVuZ3RoPSI2MyIgeD0iNDM4IiB5PSI4My4xNDg0Ij4mIzQ5MzI0OyYjNTA4NTc7JiM1MTA4ODsgREI8L3RleHQ+PHBhdGggZD0iTTQ1NC41LDMzLjkxNDEgQzQ1NC41LDIzLjkxNDEgNDcyLjUsMjMuOTE0MSA0NzIuNSwyMy45MTQxIEM0NzIuNSwyMy45MTQxIDQ5MC41LDIzLjkxNDEgNDkwLjUsMzMuOTE0MSBMNDkwLjUsNTkuOTE0MSBDNDkwLjUsNjkuOTE0MSA0NzIuNSw2OS45MTQxIDQ3Mi41LDY5LjkxNDEgQzQ3Mi41LDY5LjkxNDEgNDU0LjUsNjkuOTE0MSA0NTQuNSw1OS45MTQxIEw0NTQuNSwzMy45MTQxICIgZmlsbD0iI0UyRTJGMCIgc3R5bGU9InN0cm9rZTojMTgxODE4O3N0cm9rZS13aWR0aDoxLjU7Ii8+PHBhdGggZD0iTTQ1NC41LDMzLjkxNDEgQzQ1NC41LDQzLjkxNDEgNDcyLjUsNDMuOTE0MSA0NzIuNSw0My45MTQxIEM0NzIuNSw0My45MTQxIDQ5MC41LDQzLjkxNDEgNDkwLjUsMzMuOTE0MSAiIGZpbGw9Im5vbmUiIHN0eWxlPSJzdHJva2U6IzE4MTgxODtzdHJva2Utd2lkdGg6MS41OyIvPjx0ZXh0IGZpbGw9IiMwMDAwMDAiIGZvbnQtZmFtaWx5PSJzYW5zLXNlcmlmIiBmb250LXNpemU9IjE0IiBsZW5ndGhBZGp1c3Q9InNwYWNpbmciIHRleHRMZW5ndGg9IjYzIiB4PSI0MzgiIHk9Ijc3My4yNDIyIj4mIzQ5MzI0OyYjNTA4NTc7JiM1MTA4ODsgREI8L3RleHQ+PHBhdGggZD0iTTQ1NC41LDc4NC45OTIyIEM0NTQuNSw3NzQuOTkyMiA0NzIuNSw3NzQuOTkyMiA0NzIuNSw3NzQuOTkyMiBDNDcyLjUsNzc0Ljk5MjIgNDkwLjUsNzc0Ljk5MjIgNDkwLjUsNzg0Ljk5MjIgTDQ5MC41LDgxMC45OTIyIEM0OTAuNSw4MjAuOTkyMiA0NzIuNSw4MjAuOTkyMiA0NzIuNSw4MjAuOTkyMiBDNDcyLjUsODIwLjk5MjIgNDU0LjUsODIwLjk5MjIgNDU0LjUsODEwLjk5MjIgTDQ1NC41LDc4NC45OTIyICIgZmlsbD0iI0UyRTJGMCIgc3R5bGU9InN0cm9rZTojMTgxODE4O3N0cm9rZS13aWR0aDoxLjU7Ii8+PHBhdGggZD0iTTQ1NC41LDc4NC45OTIyIEM0NTQuNSw3OTQuOTkyMiA0NzIuNSw3OTQuOTkyMiA0NzIuNSw3OTQuOTkyMiBDNDcyLjUsNzk0Ljk5MjIgNDkwLjUsNzk0Ljk5MjIgNDkwLjUsNzg0Ljk5MjIgIiBmaWxsPSJub25lIiBzdHlsZT0ic3Ryb2tlOiMxODE4MTg7c3Ryb2tlLXdpZHRoOjEuNTsiLz48dGV4dCBmaWxsPSIjMDAwMDAwIiBmb250LWZhbWlseT0ic2Fucy1zZXJpZiIgZm9udC1zaXplPSIxNCIgbGVuZ3RoQWRqdXN0PSJzcGFjaW5nIiB0ZXh0TGVuZ3RoPSI2MyIgeD0iNTE3IiB5PSI4My4xNDg0Ij4mIzQ5ODI4OyYjNTM0NDA7JiM1MTA2ODsgREI8L3RleHQ+PHBhdGggZD0iTTUzMy41LDMzLjkxNDEgQzUzMy41LDIzLjkxNDEgNTUxLjUsMjMuOTE0MSA1NTEuNSwyMy45MTQxIEM1NTEuNSwyMy45MTQxIDU2OS41LDIzLjkxNDEgNTY5LjUsMzMuOTE0MSBMNTY5LjUsNTkuOTE0MSBDNTY5LjUsNjkuOTE0MSA1NTEuNSw2OS45MTQxIDU1MS41LDY5LjkxNDEgQzU1MS41LDY5LjkxNDEgNTMzLjUsNjkuOTE0MSA1MzMuNSw1OS45MTQxIEw1MzMuNSwzMy45MTQxICIgZmlsbD0iI0UyRTJGMCIgc3R5bGU9InN0cm9rZTojMTgxODE4O3N0cm9rZS13aWR0aDoxLjU7Ii8+PHBhdGggZD0iTTUzMy41LDMzLjkxNDEgQzUzMy41LDQzLjkxNDEgNTUxLjUsNDMuOTE0MSA1NTEuNSw0My45MTQxIEM1NTEuNSw0My45MTQxIDU2OS41LDQzLjkxNDEgNTY5LjUsMzMuOTE0MSAiIGZpbGw9Im5vbmUiIHN0eWxlPSJzdHJva2U6IzE4MTgxODtzdHJva2Utd2lkdGg6MS41OyIvPjx0ZXh0IGZpbGw9IiMwMDAwMDAiIGZvbnQtZmFtaWx5PSJzYW5zLXNlcmlmIiBmb250LXNpemU9IjE0IiBsZW5ndGhBZGp1c3Q9InNwYWNpbmciIHRleHRMZW5ndGg9IjYzIiB4PSI1MTciIHk9Ijc3My4yNDIyIj4mIzQ5ODI4OyYjNTM0NDA7JiM1MTA2ODsgREI8L3RleHQ+PHBhdGggZD0iTTUzMy41LDc4NC45OTIyIEM1MzMuNSw3NzQuOTkyMiA1NTEuNSw3NzQuOTkyMiA1NTEuNSw3NzQuOTkyMiBDNTUxLjUsNzc0Ljk5MjIgNTY5LjUsNzc0Ljk5MjIgNTY5LjUsNzg0Ljk5MjIgTDU2OS41LDgxMC45OTIyIEM1NjkuNSw4MjAuOTkyMiA1NTEuNSw4MjAuOTkyMiA1NTEuNSw4MjAuOTkyMiBDNTUxLjUsODIwLjk5MjIgNTMzLjUsODIwLjk5MjIgNTMzLjUsODEwLjk5MjIgTDUzMy41LDc4NC45OTIyICIgZmlsbD0iI0UyRTJGMCIgc3R5bGU9InN0cm9rZTojMTgxODE4O3N0cm9rZS13aWR0aDoxLjU7Ii8+PHBhdGggZD0iTTUzMy41LDc4NC45OTIyIEM1MzMuNSw3OTQuOTkyMiA1NTEuNSw3OTQuOTkyMiA1NTEuNSw3OTQuOTkyMiBDNTUxLjUsNzk0Ljk5MjIgNTY5LjUsNzk0Ljk5MjIgNTY5LjUsNzg0Ljk5MjIgIiBmaWxsPSJub25lIiBzdHlsZT0ic3Ryb2tlOiMxODE4MTg7c3Ryb2tlLXdpZHRoOjEuNTsiLz48dGV4dCBmaWxsPSIjMDAwMDAwIiBmb250LWZhbWlseT0ic2Fucy1zZXJpZiIgZm9udC1zaXplPSIxNCIgbGVuZ3RoQWRqdXN0PSJzcGFjaW5nIiB0ZXh0TGVuZ3RoPSI0OSIgeD0iNTk2IiB5PSI4My4xNDg0Ij5GVFRJIERCPC90ZXh0PjxwYXRoIGQ9Ik02MDUuNSwzMy45MTQxIEM2MDUuNSwyMy45MTQxIDYyMy41LDIzLjkxNDEgNjIzLjUsMjMuOTE0MSBDNjIzLjUsMjMuOTE0MSA2NDEuNSwyMy45MTQxIDY0MS41LDMzLjkxNDEgTDY0MS41LDU5LjkxNDEgQzY0MS41LDY5LjkxNDEgNjIzLjUsNjkuOTE0MSA2MjMuNSw2OS45MTQxIEM2MjMuNSw2OS45MTQxIDYwNS41LDY5LjkxNDEgNjA1LjUsNTkuOTE0MSBMNjA1LjUsMzMuOTE0MSAiIGZpbGw9IiNFMkUyRjAiIHN0eWxlPSJzdHJva2U6IzE4MTgxODtzdHJva2Utd2lkdGg6MS41OyIvPjxwYXRoIGQ9Ik02MDUuNSwzMy45MTQxIEM2MDUuNSw0My45MTQxIDYyMy41LDQzLjkxNDEgNjIzLjUsNDMuOTE0MSBDNjIzLjUsNDMuOTE0MSA2NDEuNSw0My45MTQxIDY0MS41LDMzLjkxNDEgIiBmaWxsPSJub25lIiBzdHlsZT0ic3Ryb2tlOiMxODE4MTg7c3Ryb2tlLXdpZHRoOjEuNTsiLz48dGV4dCBmaWxsPSIjMDAwMDAwIiBmb250LWZhbWlseT0ic2Fucy1zZXJpZiIgZm9udC1zaXplPSIxNCIgbGVuZ3RoQWRqdXN0PSJzcGFjaW5nIiB0ZXh0TGVuZ3RoPSI0OSIgeD0iNTk2IiB5PSI3NzMuMjQyMiI+RlRUSSBEQjwvdGV4dD48cGF0aCBkPSJNNjA1LjUsNzg0Ljk5MjIgQzYwNS41LDc3NC45OTIyIDYyMy41LDc3NC45OTIyIDYyMy41LDc3NC45OTIyIEM2MjMuNSw3NzQuOTkyMiA2NDEuNSw3NzQuOTkyMiA2NDEuNSw3ODQuOTkyMiBMNjQxLjUsODEwLjk5MjIgQzY0MS41LDgyMC45OTIyIDYyMy41LDgyMC45OTIyIDYyMy41LDgyMC45OTIyIEM2MjMuNSw4MjAuOTkyMiA2MDUuNSw4MjAuOTkyMiA2MDUuNSw4MTAuOTkyMiBMNjA1LjUsNzg0Ljk5MjIgIiBmaWxsPSIjRTJFMkYwIiBzdHlsZT0ic3Ryb2tlOiMxODE4MTg7c3Ryb2tlLXdpZHRoOjEuNTsiLz48cGF0aCBkPSJNNjA1LjUsNzg0Ljk5MjIgQzYwNS41LDc5NC45OTIyIDYyMy41LDc5NC45OTIyIDYyMy41LDc5NC45OTIyIEM2MjMuNSw3OTQuOTkyMiA2NDEuNSw3OTQuOTkyMiA2NDEuNSw3ODQuOTkyMiAiIGZpbGw9Im5vbmUiIHN0eWxlPSJzdHJva2U6IzE4MTgxODtzdHJva2Utd2lkdGg6MS41OyIvPjxyZWN0IGZpbGw9IiNGRkZGRkYiIGhlaWdodD0iMTk1LjM5ODQiIHN0eWxlPSJzdHJva2U6IzE4MTgxODtzdHJva2Utd2lkdGg6MS4wOyIgd2lkdGg9IjEwIiB4PSIyMjQuNSIgeT0iMjgyLjM4MjgiLz48cmVjdCBmaWxsPSIjRkZGRkZGIiBoZWlnaHQ9IjE5NS4zOTg0IiBzdHlsZT0ic3Ryb2tlOiMxODE4MTg7c3Ryb2tlLXdpZHRoOjEuMDsiIHdpZHRoPSIxMCIgeD0iMjI0LjUiIHk9IjU0Ny42MDk0Ii8+PHJlY3QgZmlsbD0iI0ZGRkZGRiIgaGVpZ2h0PSIxMzkuNTcwMyIgc3R5bGU9InN0cm9rZTojMTgxODE4O3N0cm9rZS13aWR0aDoxLjA7IiB3aWR0aD0iMTAiIHg9IjM1My41IiB5PSIzMTAuMjk2OSIvPjxyZWN0IGZpbGw9IiNGRkZGRkYiIGhlaWdodD0iMTM5LjU3MDMiIHN0eWxlPSJzdHJva2U6IzE4MTgxODtzdHJva2Utd2lkdGg6MS4wOyIgd2lkdGg9IjEwIiB4PSIzNTMuNSIgeT0iNTc1LjUyMzQiLz48cmVjdCBmaWxsPSIjRkZGRkZGIiBoZWlnaHQ9IjI3LjkxNDEiIHN0eWxlPSJzdHJva2U6IzE4MTgxODtzdHJva2Utd2lkdGg6MS4wOyIgd2lkdGg9IjEwIiB4PSI0NjcuNSIgeT0iMzM4LjIxMDkiLz48cmVjdCBmaWxsPSIjRkZGRkZGIiBoZWlnaHQ9IjI3LjkxNDEiIHN0eWxlPSJzdHJva2U6IzE4MTgxODtzdHJva2Utd2lkdGg6MS4wOyIgd2lkdGg9IjEwIiB4PSI0NjcuNSIgeT0iNjAzLjQzNzUiLz48cmVjdCBmaWxsPSIjRkZGRkZGIiBoZWlnaHQ9IjI3LjkxNDEiIHN0eWxlPSJzdHJva2U6IzE4MTgxODtzdHJva2Utd2lkdGg6MS4wOyIgd2lkdGg9IjEwIiB4PSI1NDYuNSIgeT0iNjU5LjI2NTYiLz48cmVjdCBmaWxsPSIjRkZGRkZGIiBoZWlnaHQ9IjI3LjkxNDEiIHN0eWxlPSJzdHJva2U6IzE4MTgxODtzdHJva2Utd2lkdGg6MS4wOyIgd2lkdGg9IjEwIiB4PSI2MTguNSIgeT0iMzk0LjAzOTEiLz48cmVjdCBmaWxsPSIjRUVFRUVFIiBoZWlnaHQ9IjMiIHN0eWxlPSJzdHJva2U6I0VFRUVFRTtzdHJva2Utd2lkdGg6MS4wOyIgd2lkdGg9IjY2NiIgeD0iMCIgeT0iMTE0Ljg1NTUiLz48bGluZSBzdHlsZT0ic3Ryb2tlOiMwMDAwMDA7c3Ryb2tlLXdpZHRoOjEuMDsiIHgxPSIwIiB4Mj0iNjY2IiB5MT0iMTE0Ljg1NTUiIHkyPSIxMTQuODU1NSIvPjxsaW5lIHN0eWxlPSJzdHJva2U6IzAwMDAwMDtzdHJva2Utd2lkdGg6MS4wOyIgeDE9IjAiIHgyPSI2NjYiIHkxPSIxMTcuODU1NSIgeTI9IjExNy44NTU1Ii8+PHJlY3QgZmlsbD0iI0VFRUVFRSIgaGVpZ2h0PSIyMS45MTQxIiBzdHlsZT0ic3Ryb2tlOiMwMDAwMDA7c3Ryb2tlLXdpZHRoOjIuMDsiIHdpZHRoPSI3OSIgeD0iMjkzLjUiIHk9IjEwNC44OTg0Ii8+PHRleHQgZmlsbD0iIzAwMDAwMCIgZm9udC1mYW1pbHk9InNhbnMtc2VyaWYiIGZvbnQtc2l6ZT0iMTMiIGZvbnQtd2VpZ2h0PSJib2xkIiBsZW5ndGhBZGp1c3Q9InNwYWNpbmciIHRleHRMZW5ndGg9IjU4IiB4PSIyOTkuNSIgeT0iMTIxLjE4NzUiPkZUVEkgJiM0NDE2MDsmIzQ5MzI0OzwvdGV4dD48cG9seWdvbiBmaWxsPSIjMTgxODE4IiBwb2ludHM9IjIxNy41LDE1Mi43MjY2LDIyNy41LDE1Ni43MjY2LDIxNy41LDE2MC43MjY2LDIyMS41LDE1Ni43MjY2IiBzdHlsZT0ic3Ryb2tlOiMxODE4MTg7c3Ryb2tlLXdpZHRoOjEuMDsiLz48bGluZSBzdHlsZT0ic3Ryb2tlOiMxODE4MTg7c3Ryb2tlLXdpZHRoOjEuMDsiIHgxPSI1My41IiB4Mj0iMjIzLjUiIHkxPSIxNTYuNzI2NiIgeTI9IjE1Ni43MjY2Ii8+PHRleHQgZmlsbD0iIzAwMDAwMCIgZm9udC1mYW1pbHk9InNhbnMtc2VyaWYiIGZvbnQtc2l6ZT0iMTMiIGxlbmd0aEFkanVzdD0ic3BhY2luZyIgdGV4dExlbmd0aD0iMTA1IiB4PSI2MC41IiB5PSIxNTMuMTAxNiI+JiM0OTQ0MDsmIzU0ODQwOyAmIzQ5ODI4OyYjNTM0NDA7JiM1MTA2ODsgJiM0OTQ0MDsmIzUzNDY5OzwvdGV4dD48cG9seWdvbiBmaWxsPSIjMTgxODE4IiBwb2ludHM9IjM0Ni41LDE4MC42NDA2LDM1Ni41LDE4NC42NDA2LDM0Ni41LDE4OC42NDA2LDM1MC41LDE4NC42NDA2IiBzdHlsZT0ic3Ryb2tlOiMxODE4MTg7c3Ryb2tlLXdpZHRoOjEuMDsiLz48bGluZSBzdHlsZT0ic3Ryb2tlOiMxODE4MTg7c3Ryb2tlLXdpZHRoOjEuMDsiIHgxPSIyMjkuNSIgeDI9IjM1Mi41IiB5MT0iMTg0LjY0MDYiIHkyPSIxODQuNjQwNiIvPjx0ZXh0IGZpbGw9IiMwMDAwMDAiIGZvbnQtZmFtaWx5PSJzYW5zLXNlcmlmIiBmb250LXNpemU9IjEzIiBsZW5ndGhBZGp1c3Q9InNwYWNpbmciIHRleHRMZW5ndGg9IjEwNSIgeD0iMjM2LjUiIHk9IjE4MS4wMTU2Ij4mIzQ5ODI4OyYjNTM0NDA7JiM1MTA2ODsgJiM0OTQ0MDsmIzUzNDY5OyAmIzUxMjIxOyYjNDgzNzI7PC90ZXh0Pjxwb2x5Z29uIGZpbGw9IiMxODE4MTgiIHBvaW50cz0iNDYwLjUsMjA4LjU1NDcsNDcwLjUsMjEyLjU1NDcsNDYwLjUsMjE2LjU1NDcsNDY0LjUsMjEyLjU1NDciIHN0eWxlPSJzdHJva2U6IzE4MTgxODtzdHJva2Utd2lkdGg6MS4wOyIvPjxsaW5lIHN0eWxlPSJzdHJva2U6IzE4MTgxODtzdHJva2Utd2lkdGg6MS4wOyIgeDE9IjM1OC41IiB4Mj0iNDY2LjUiIHkxPSIyMTIuNTU0NyIgeTI9IjIxMi41NTQ3Ii8+PHRleHQgZmlsbD0iIzAwMDAwMCIgZm9udC1mYW1pbHk9InNhbnMtc2VyaWYiIGZvbnQtc2l6ZT0iMTMiIGxlbmd0aEFkanVzdD0ic3BhY2luZyIgdGV4dExlbmd0aD0iNTgiIHg9IjM2NS41IiB5PSIyMDguOTI5NyI+RlRUSSAmIzUxMjAwOyYjNTExMDk7PC90ZXh0PjxyZWN0IGZpbGw9IiNFRUVFRUUiIGhlaWdodD0iMyIgc3R5bGU9InN0cm9rZTojRUVFRUVFO3N0cm9rZS13aWR0aDoxLjA7IiB3aWR0aD0iNjY2IiB4PSIwIiB5PSIyNDAuNTExNyIvPjxsaW5lIHN0eWxlPSJzdHJva2U6IzAwMDAwMDtzdHJva2Utd2lkdGg6MS4wOyIgeDE9IjAiIHgyPSI2NjYiIHkxPSIyNDAuNTExNyIgeTI9IjI0MC41MTE3Ii8+PGxpbmUgc3R5bGU9InN0cm9rZTojMDAwMDAwO3N0cm9rZS13aWR0aDoxLjA7IiB4MT0iMCIgeDI9IjY2NiIgeTE9IjI0My41MTE3IiB5Mj0iMjQzLjUxMTciLz48cmVjdCBmaWxsPSIjRUVFRUVFIiBoZWlnaHQ9IjIxLjkxNDEiIHN0eWxlPSJzdHJva2U6IzAwMDAwMDtzdHJva2Utd2lkdGg6Mi4wOyIgd2lkdGg9Ijc5IiB4PSIyOTMuNSIgeT0iMjMwLjU1NDciLz48dGV4dCBmaWxsPSIjMDAwMDAwIiBmb250LWZhbWlseT0ic2Fucy1zZXJpZiIgZm9udC1zaXplPSIxMyIgZm9udC13ZWlnaHQ9ImJvbGQiIGxlbmd0aEFkanVzdD0ic3BhY2luZyIgdGV4dExlbmd0aD0iNTgiIHg9IjI5OS41IiB5PSIyNDYuODQzOCI+RlRUSSAmIzUxMzEyOyYjNTQ5MjQ7PC90ZXh0Pjxwb2x5Z29uIGZpbGw9IiMxODE4MTgiIHBvaW50cz0iMjEyLjUsMjc4LjM4MjgsMjIyLjUsMjgyLjM4MjgsMjEyLjUsMjg2LjM4MjgsMjE2LjUsMjgyLjM4MjgiIHN0eWxlPSJzdHJva2U6IzE4MTgxODtzdHJva2Utd2lkdGg6MS4wOyIvPjxsaW5lIHN0eWxlPSJzdHJva2U6IzE4MTgxODtzdHJva2Utd2lkdGg6MS4wOyIgeDE9IjUzLjUiIHgyPSIyMTguNSIgeTE9IjI4Mi4zODI4IiB5Mj0iMjgyLjM4MjgiLz48dGV4dCBmaWxsPSIjMDAwMDAwIiBmb250LWZhbWlseT0ic2Fucy1zZXJpZiIgZm9udC1zaXplPSIxMyIgbGVuZ3RoQWRqdXN0PSJzcGFjaW5nIiB0ZXh0TGVuZ3RoPSIxMjUiIHg9IjYwLjUiIHk9IjI3OC43NTc4Ij4iJiM0NTIzNjsgRlRUSSIgJiM0ODI2MDsmIzUzOTQ4OyAmIzUzMzY0OyYjNDc1MzM7PC90ZXh0Pjxwb2x5Z29uIGZpbGw9IiMxODE4MTgiIHBvaW50cz0iMzQxLjUsMzA2LjI5NjksMzUxLjUsMzEwLjI5NjksMzQxLjUsMzE0LjI5NjksMzQ1LjUsMzEwLjI5NjkiIHN0eWxlPSJzdHJva2U6IzE4MTgxODtzdHJva2Utd2lkdGg6MS4wOyIvPjxsaW5lIHN0eWxlPSJzdHJva2U6IzE4MTgxODtzdHJva2Utd2lkdGg6MS4wOyIgeDE9IjIzNC41IiB4Mj0iMzQ3LjUiIHkxPSIzMTAuMjk2OSIgeTI9IjMxMC4yOTY5Ii8+PHRleHQgZmlsbD0iIzAwMDAwMCIgZm9udC1mYW1pbHk9InNhbnMtc2VyaWYiIGZvbnQtc2l6ZT0iMTMiIGxlbmd0aEFkanVzdD0ic3BhY2luZyIgdGV4dExlbmd0aD0iNTIiIHg9IjI0MS41IiB5PSIzMDYuNjcxOSI+JiM0OTMyNDsmIzUwODU3OyYjNTEwODg7SUQ8L3RleHQ+PHBvbHlnb24gZmlsbD0iIzE4MTgxOCIgcG9pbnRzPSI0NTUuNSwzMzQuMjEwOSw0NjUuNSwzMzguMjEwOSw0NTUuNSwzNDIuMjEwOSw0NTkuNSwzMzguMjEwOSIgc3R5bGU9InN0cm9rZTojMTgxODE4O3N0cm9rZS13aWR0aDoxLjA7Ii8+PGxpbmUgc3R5bGU9InN0cm9rZTojMTgxODE4O3N0cm9rZS13aWR0aDoxLjA7IiB4MT0iMzYzLjUiIHgyPSI0NjEuNSIgeTE9IjMzOC4yMTA5IiB5Mj0iMzM4LjIxMDkiLz48dGV4dCBmaWxsPSIjMDAwMDAwIiBmb250LWZhbWlseT0ic2Fucy1zZXJpZiIgZm9udC1zaXplPSIxMyIgbGVuZ3RoQWRqdXN0PSJzcGFjaW5nIiB0ZXh0TGVuZ3RoPSI4NSIgeD0iMzcwLjUiIHk9IjMzNC41ODU5Ij4mIzQ5MzI0OyYjNTA4NTc7JiM1MTA4ODtJRCAmIzUxMzEyOyYjNTQ5MjQ7PC90ZXh0Pjxwb2x5Z29uIGZpbGw9IiMxODE4MTgiIHBvaW50cz0iMzc0LjUsMzYyLjEyNSwzNjQuNSwzNjYuMTI1LDM3NC41LDM3MC4xMjUsMzcwLjUsMzY2LjEyNSIgc3R5bGU9InN0cm9rZTojMTgxODE4O3N0cm9rZS13aWR0aDoxLjA7Ii8+PGxpbmUgc3R5bGU9InN0cm9rZTojMTgxODE4O3N0cm9rZS13aWR0aDoxLjA7c3Ryb2tlLWRhc2hhcnJheToyLjAsMi4wOyIgeDE9IjM2OC41IiB4Mj0iNDcxLjUiIHkxPSIzNjYuMTI1IiB5Mj0iMzY2LjEyNSIvPjx0ZXh0IGZpbGw9IiMwMDAwMDAiIGZvbnQtZmFtaWx5PSJzYW5zLXNlcmlmIiBmb250LXNpemU9IjEzIiBsZW5ndGhBZGp1c3Q9InNwYWNpbmciIHRleHRMZW5ndGg9IjcxIiB4PSIzODAuNSIgeT0iMzYyLjUiPiYjNDkzMjQ7JiM1MDg1NzsmIzUxMDg4OyBGVFRJPC90ZXh0Pjxwb2x5Z29uIGZpbGw9IiMxODE4MTgiIHBvaW50cz0iNjA2LjUsMzkwLjAzOTEsNjE2LjUsMzk0LjAzOTEsNjA2LjUsMzk4LjAzOTEsNjEwLjUsMzk0LjAzOTEiIHN0eWxlPSJzdHJva2U6IzE4MTgxODtzdHJva2Utd2lkdGg6MS4wOyIvPjxsaW5lIHN0eWxlPSJzdHJva2U6IzE4MTgxODtzdHJva2Utd2lkdGg6MS4wOyIgeDE9IjM2My41IiB4Mj0iNjEyLjUiIHkxPSIzOTQuMDM5MSIgeTI9IjM5NC4wMzkxIi8+PHRleHQgZmlsbD0iIzAwMDAwMCIgZm9udC1mYW1pbHk9InNhbnMtc2VyaWYiIGZvbnQtc2l6ZT0iMTMiIGxlbmd0aEFkanVzdD0ic3BhY2luZyIgdGV4dExlbmd0aD0iMTA0IiB4PSIzNzAuNSIgeT0iMzkwLjQxNDEiPiYjNDkzMjQ7JiM1MDg1NzsmIzUxMDg4OyBGVFRJICYjNTEzMTI7JiM1NDkyNDs8L3RleHQ+PHBvbHlnb24gZmlsbD0iIzE4MTgxOCIgcG9pbnRzPSIzNzQuNSw0MTcuOTUzMSwzNjQuNSw0MjEuOTUzMSwzNzQuNSw0MjUuOTUzMSwzNzAuNSw0MjEuOTUzMSIgc3R5bGU9InN0cm9rZTojMTgxODE4O3N0cm9rZS13aWR0aDoxLjA7Ii8+PGxpbmUgc3R5bGU9InN0cm9rZTojMTgxODE4O3N0cm9rZS13aWR0aDoxLjA7c3Ryb2tlLWRhc2hhcnJheToyLjAsMi4wOyIgeDE9IjM2OC41IiB4Mj0iNjIyLjUiIHkxPSI0MjEuOTUzMSIgeTI9IjQyMS45NTMxIi8+PHRleHQgZmlsbD0iIzAwMDAwMCIgZm9udC1mYW1pbHk9InNhbnMtc2VyaWYiIGZvbnQtc2l6ZT0iMTMiIGxlbmd0aEFkanVzdD0ic3BhY2luZyIgdGV4dExlbmd0aD0iNTgiIHg9IjM4MC41IiB5PSI0MTguMzI4MSI+RlRUSSAmIzQ5NDQ0OyYjNDc3NDk7PC90ZXh0Pjxwb2x5Z29uIGZpbGw9IiMxODE4MTgiIHBvaW50cz0iMjQ1LjUsNDQ1Ljg2NzIsMjM1LjUsNDQ5Ljg2NzIsMjQ1LjUsNDUzLjg2NzIsMjQxLjUsNDQ5Ljg2NzIiIHN0eWxlPSJzdHJva2U6IzE4MTgxODtzdHJva2Utd2lkdGg6MS4wOyIvPjxsaW5lIHN0eWxlPSJzdHJva2U6IzE4MTgxODtzdHJva2Utd2lkdGg6MS4wO3N0cm9rZS1kYXNoYXJyYXk6Mi4wLDIuMDsiIHgxPSIyMzkuNSIgeDI9IjM1Ny41IiB5MT0iNDQ5Ljg2NzIiIHkyPSI0NDkuODY3MiIvPjx0ZXh0IGZpbGw9IiMwMDAwMDAiIGZvbnQtZmFtaWx5PSJzYW5zLXNlcmlmIiBmb250LXNpemU9IjEzIiBsZW5ndGhBZGp1c3Q9InNwYWNpbmciIHRleHRMZW5ndGg9IjU4IiB4PSIyNTEuNSIgeT0iNDQ2LjI0MjIiPkZUVEkgJiM0OTQ0NDsmIzQ3NzQ5OzwvdGV4dD48cG9seWdvbiBmaWxsPSIjMTgxODE4IiBwb2ludHM9IjY0LjUsNDczLjc4MTMsNTQuNSw0NzcuNzgxMyw2NC41LDQ4MS43ODEzLDYwLjUsNDc3Ljc4MTMiIHN0eWxlPSJzdHJva2U6IzE4MTgxODtzdHJva2Utd2lkdGg6MS4wOyIvPjxsaW5lIHN0eWxlPSJzdHJva2U6IzE4MTgxODtzdHJva2Utd2lkdGg6MS4wO3N0cm9rZS1kYXNoYXJyYXk6Mi4wLDIuMDsiIHgxPSI1OC41IiB4Mj0iMjI4LjUiIHkxPSI0NzcuNzgxMyIgeTI9IjQ3Ny43ODEzIi8+PHRleHQgZmlsbD0iIzAwMDAwMCIgZm9udC1mYW1pbHk9InNhbnMtc2VyaWYiIGZvbnQtc2l6ZT0iMTMiIGxlbmd0aEFkanVzdD0ic3BhY2luZyIgdGV4dExlbmd0aD0iMTA0IiB4PSI3MC41IiB5PSI0NzQuMTU2MyI+RlRUSSAmIzQ5NDQ0OyYjNDc3NDk7ICYjNTQxNjg7JiM1MTA2MDsmIzUxNjQ4OzwvdGV4dD48cmVjdCBmaWxsPSIjRUVFRUVFIiBoZWlnaHQ9IjMiIHN0eWxlPSJzdHJva2U6I0VFRUVFRTtzdHJva2Utd2lkdGg6MS4wOyIgd2lkdGg9IjY2NiIgeD0iMCIgeT0iNTA1LjczODMiLz48bGluZSBzdHlsZT0ic3Ryb2tlOiMwMDAwMDA7c3Ryb2tlLXdpZHRoOjEuMDsiIHgxPSIwIiB4Mj0iNjY2IiB5MT0iNTA1LjczODMiIHkyPSI1MDUuNzM4MyIvPjxsaW5lIHN0eWxlPSJzdHJva2U6IzAwMDAwMDtzdHJva2Utd2lkdGg6MS4wOyIgeDE9IjAiIHgyPSI2NjYiIHkxPSI1MDguNzM4MyIgeTI9IjUwOC43MzgzIi8+PHJlY3QgZmlsbD0iI0VFRUVFRSIgaGVpZ2h0PSIyMS45MTQxIiBzdHlsZT0ic3Ryb2tlOiMwMDAwMDA7c3Ryb2tlLXdpZHRoOjIuMDsiIHdpZHRoPSIxMjYiIHg9IjI3MCIgeT0iNDk1Ljc4MTMiLz48dGV4dCBmaWxsPSIjMDAwMDAwIiBmb250LWZhbWlseT0ic2Fucy1zZXJpZiIgZm9udC1zaXplPSIxMyIgZm9udC13ZWlnaHQ9ImJvbGQiIGxlbmd0aEFkanVzdD0ic3BhY2luZyIgdGV4dExlbmd0aD0iMTA1IiB4PSIyNzYiIHk9IjUxMi4wNzAzIj4mIzUyNjI4OyYjNTIzODA7ICYjNDk4Mjg7JiM1MzQ0MDsmIzUxMDY4OyAmIzUxMzEyOyYjNTQ5MjQ7PC90ZXh0Pjxwb2x5Z29uIGZpbGw9IiMxODE4MTgiIHBvaW50cz0iMjEyLjUsNTQzLjYwOTQsMjIyLjUsNTQ3LjYwOTQsMjEyLjUsNTUxLjYwOTQsMjE2LjUsNTQ3LjYwOTQiIHN0eWxlPSJzdHJva2U6IzE4MTgxODtzdHJva2Utd2lkdGg6MS4wOyIvPjxsaW5lIHN0eWxlPSJzdHJva2U6IzE4MTgxODtzdHJva2Utd2lkdGg6MS4wOyIgeDE9IjUzLjUiIHgyPSIyMTguNSIgeTE9IjU0Ny42MDk0IiB5Mj0iNTQ3LjYwOTQiLz48dGV4dCBmaWxsPSIjMDAwMDAwIiBmb250LWZhbWlseT0ic2Fucy1zZXJpZiIgZm9udC1zaXplPSIxMyIgbGVuZ3RoQWRqdXN0PSJzcGFjaW5nIiB0ZXh0TGVuZ3RoPSIxNTIiIHg9IjYwLjUiIHk9IjU0My45ODQ0Ij4iJiM0OTgyODsmIzUzNDQwOyYjNTEwNjg7ICYjNTI2Mjg7JiM1MjM4MDsiICYjNDgyNjA7JiM1Mzk0ODsgJiM1MzM2NDsmIzQ3NTMzOzwvdGV4dD48cG9seWdvbiBmaWxsPSIjMTgxODE4IiBwb2ludHM9IjM0MS41LDU3MS41MjM0LDM1MS41LDU3NS41MjM0LDM0MS41LDU3OS41MjM0LDM0NS41LDU3NS41MjM0IiBzdHlsZT0ic3Ryb2tlOiMxODE4MTg7c3Ryb2tlLXdpZHRoOjEuMDsiLz48bGluZSBzdHlsZT0ic3Ryb2tlOiMxODE4MTg7c3Ryb2tlLXdpZHRoOjEuMDsiIHgxPSIyMzQuNSIgeDI9IjM0Ny41IiB5MT0iNTc1LjUyMzQiIHkyPSI1NzUuNTIzNCIvPjx0ZXh0IGZpbGw9IiMwMDAwMDAiIGZvbnQtZmFtaWx5PSJzYW5zLXNlcmlmIiBmb250LXNpemU9IjEzIiBsZW5ndGhBZGp1c3Q9InNwYWNpbmciIHRleHRMZW5ndGg9IjUyIiB4PSIyNDEuNSIgeT0iNTcxLjg5ODQiPiYjNDkzMjQ7JiM1MDg1NzsmIzUxMDg4O0lEPC90ZXh0Pjxwb2x5Z29uIGZpbGw9IiMxODE4MTgiIHBvaW50cz0iNDU1LjUsNTk5LjQzNzUsNDY1LjUsNjAzLjQzNzUsNDU1LjUsNjA3LjQzNzUsNDU5LjUsNjAzLjQzNzUiIHN0eWxlPSJzdHJva2U6IzE4MTgxODtzdHJva2Utd2lkdGg6MS4wOyIvPjxsaW5lIHN0eWxlPSJzdHJva2U6IzE4MTgxODtzdHJva2Utd2lkdGg6MS4wOyIgeDE9IjM2My41IiB4Mj0iNDYxLjUiIHkxPSI2MDMuNDM3NSIgeTI9IjYwMy40Mzc1Ii8+PHRleHQgZmlsbD0iIzAwMDAwMCIgZm9udC1mYW1pbHk9InNhbnMtc2VyaWYiIGZvbnQtc2l6ZT0iMTMiIGxlbmd0aEFkanVzdD0ic3BhY2luZyIgdGV4dExlbmd0aD0iODUiIHg9IjM3MC41IiB5PSI1OTkuODEyNSI+JiM0OTMyNDsmIzUwODU3OyYjNTEwODg7SUQgJiM1MTMxMjsmIzU0OTI0OzwvdGV4dD48cG9seWdvbiBmaWxsPSIjMTgxODE4IiBwb2ludHM9IjM3NC41LDYyNy4zNTE2LDM2NC41LDYzMS4zNTE2LDM3NC41LDYzNS4zNTE2LDM3MC41LDYzMS4zNTE2IiBzdHlsZT0ic3Ryb2tlOiMxODE4MTg7c3Ryb2tlLXdpZHRoOjEuMDsiLz48bGluZSBzdHlsZT0ic3Ryb2tlOiMxODE4MTg7c3Ryb2tlLXdpZHRoOjEuMDtzdHJva2UtZGFzaGFycmF5OjIuMCwyLjA7IiB4MT0iMzY4LjUiIHgyPSI0NzEuNSIgeTE9IjYzMS4zNTE2IiB5Mj0iNjMxLjM1MTYiLz48dGV4dCBmaWxsPSIjMDAwMDAwIiBmb250LWZhbWlseT0ic2Fucy1zZXJpZiIgZm9udC1zaXplPSIxMyIgbGVuZ3RoQWRqdXN0PSJzcGFjaW5nIiB0ZXh0TGVuZ3RoPSI3MSIgeD0iMzgwLjUiIHk9IjYyNy43MjY2Ij4mIzQ5MzI0OyYjNTA4NTc7JiM1MTA4ODsgRlRUSTwvdGV4dD48cG9seWdvbiBmaWxsPSIjMTgxODE4IiBwb2ludHM9IjUzNC41LDY1NS4yNjU2LDU0NC41LDY1OS4yNjU2LDUzNC41LDY2My4yNjU2LDUzOC41LDY1OS4yNjU2IiBzdHlsZT0ic3Ryb2tlOiMxODE4MTg7c3Ryb2tlLXdpZHRoOjEuMDsiLz48bGluZSBzdHlsZT0ic3Ryb2tlOiMxODE4MTg7c3Ryb2tlLXdpZHRoOjEuMDsiIHgxPSIzNjMuNSIgeDI9IjU0MC41IiB5MT0iNjU5LjI2NTYiIHkyPSI2NTkuMjY1NiIvPjx0ZXh0IGZpbGw9IiMwMDAwMDAiIGZvbnQtZmFtaWx5PSJzYW5zLXNlcmlmIiBmb250LXNpemU9IjEzIiBsZW5ndGhBZGp1c3Q9InNwYWNpbmciIHRleHRMZW5ndGg9IjEwNCIgeD0iMzcwLjUiIHk9IjY1NS42NDA2Ij4mIzQ5MzI0OyYjNTA4NTc7JiM1MTA4ODsgRlRUSSAmIzUxMzEyOyYjNTQ5MjQ7PC90ZXh0Pjxwb2x5Z29uIGZpbGw9IiMxODE4MTgiIHBvaW50cz0iMzc0LjUsNjgzLjE3OTcsMzY0LjUsNjg3LjE3OTcsMzc0LjUsNjkxLjE3OTcsMzcwLjUsNjg3LjE3OTciIHN0eWxlPSJzdHJva2U6IzE4MTgxODtzdHJva2Utd2lkdGg6MS4wOyIvPjxsaW5lIHN0eWxlPSJzdHJva2U6IzE4MTgxODtzdHJva2Utd2lkdGg6MS4wO3N0cm9rZS1kYXNoYXJyYXk6Mi4wLDIuMDsiIHgxPSIzNjguNSIgeDI9IjU1MC41IiB5MT0iNjg3LjE3OTciIHkyPSI2ODcuMTc5NyIvPjx0ZXh0IGZpbGw9IiMwMDAwMDAiIGZvbnQtZmFtaWx5PSJzYW5zLXNlcmlmIiBmb250LXNpemU9IjEzIiBsZW5ndGhBZGp1c3Q9InNwYWNpbmciIHRleHRMZW5ndGg9IjkyIiB4PSIzODAuNSIgeT0iNjgzLjU1NDciPiYjNTI2Mjg7JiM1MjM4MDsgJiM0OTgyODsmIzUzNDQwOyYjNTEwNjg7IElEPC90ZXh0Pjxwb2x5Z29uIGZpbGw9IiMxODE4MTgiIHBvaW50cz0iMjQ1LjUsNzExLjA5MzgsMjM1LjUsNzE1LjA5MzgsMjQ1LjUsNzE5LjA5MzgsMjQxLjUsNzE1LjA5MzgiIHN0eWxlPSJzdHJva2U6IzE4MTgxODtzdHJva2Utd2lkdGg6MS4wOyIvPjxsaW5lIHN0eWxlPSJzdHJva2U6IzE4MTgxODtzdHJva2Utd2lkdGg6MS4wO3N0cm9rZS1kYXNoYXJyYXk6Mi4wLDIuMDsiIHgxPSIyMzkuNSIgeDI9IjM1Ny41IiB5MT0iNzE1LjA5MzgiIHkyPSI3MTUuMDkzOCIvPjx0ZXh0IGZpbGw9IiMwMDAwMDAiIGZvbnQtZmFtaWx5PSJzYW5zLXNlcmlmIiBmb250LXNpemU9IjEzIiBsZW5ndGhBZGp1c3Q9InNwYWNpbmciIHRleHRMZW5ndGg9IjU4IiB4PSIyNTEuNSIgeT0iNzExLjQ2ODgiPkZUVEkgJiM0OTQ0NDsmIzQ3NzQ5OzwvdGV4dD48cG9seWdvbiBmaWxsPSIjMTgxODE4IiBwb2ludHM9IjY0LjUsNzM5LjAwNzgsNTQuNSw3NDMuMDA3OCw2NC41LDc0Ny4wMDc4LDYwLjUsNzQzLjAwNzgiIHN0eWxlPSJzdHJva2U6IzE4MTgxODtzdHJva2Utd2lkdGg6MS4wOyIvPjxsaW5lIHN0eWxlPSJzdHJva2U6IzE4MTgxODtzdHJva2Utd2lkdGg6MS4wO3N0cm9rZS1kYXNoYXJyYXk6Mi4wLDIuMDsiIHgxPSI1OC41IiB4Mj0iMjI4LjUiIHkxPSI3NDMuMDA3OCIgeTI9Ijc0My4wMDc4Ii8+PHRleHQgZmlsbD0iIzAwMDAwMCIgZm9udC1mYW1pbHk9InNhbnMtc2VyaWYiIGZvbnQtc2l6ZT0iMTMiIGxlbmd0aEFkanVzdD0ic3BhY2luZyIgdGV4dExlbmd0aD0iMTA0IiB4PSI3MC41IiB5PSI3MzkuMzgyOCI+RlRUSSAmIzQ5NDQ0OyYjNDc3NDk7ICYjNTQxNjg7JiM1MTA2MDsmIzUxNjQ4OzwvdGV4dD48IS0tU1JDPVtsUDdESWlEMDU4TnR5bklOUjhqR05HUllHZWhHVkx6V2FhYkJnNHZZVmEwSGVSUHJLcUhTTTJZYkJITWdlWVhlM1FCRzlwQUpUdDBvcFAtc2JSZW5vdGstY3RGazZRVGtLMGxSVTF6S2hETGhqa2JIZWZieGZXc2taUWQzOVBzd29DYWV5ejMyWDFZcTFmbDV0RHBIM3BvVFFaZVM4dVdfQmhZNlBiWU9raWRBTFo1TDhvakJEU2RIUnh1ZDI2aWtkcWNpRkdXLXNnbXAwVFB5UEZyeERoZ0swM2xXOEh1OGZEckFmR21mOG9zQmE0M1Q1eDY4Qk1pNVBUWXdZWHF6ZmVvSzhqWjVhUzMzOTE2V2ozRjdZQmVDd3FwMkxlQ0RQbWNzYjFBZk9nM0EyUHNJZzZJNDUwTTR6WmJqUzRERzU4R3lzRFlFYWlseXJkN09VdVZDOFhncVhlWUJTeVFHNXFIV3VzeG13ZEY2NDBuSHZSYTM2cFZPdzJQcFBEVkZPVl95Y3NFWDg4Q0tEN3ExSTExQ3NzNWQxazZmN3ptLXZLbVpCNnNkTkNmUF9MMVkzc0poaGNWSkoxN19KelFnRnpSb3dQQkQtRUtkbVNGUFVZQzhCdGZpd0JFeFhaWU9sTHNud0kzVnJPaFpTdUhPLVF5SXJrWFd1R1BrLWlTa2xXMDBdLS0+PC9nPjwvc3ZnPg==;" parent="1" vertex="1">
            <mxGeometry x="180" y="90" width="673" height="844" as="geometry" />
          </mxCell>
        </UserObject>
      </root>
    </mxGraphModel>
  </diagram>
  <diagram id="0AV7kmRmGNhLEBpFOvw3" name="페이지-2">
    <mxGraphModel dx="674" dy="844" grid="1" gridSize="10" guides="1" tooltips="1" connect="1" arrows="1" fold="1" page="1" pageScale="1" pageWidth="827" pageHeight="1169" math="0" shadow="0">
      <root>
        <mxCell id="0" />
        <mxCell id="1" parent="0" />
        <UserObject label="" plantUmlData="{&quot;data&quot;:&quot;@startuml\nskinparam backgroundcolor transparent\nskinparam boxpadding 10\nskinparam sequence {\n        participantpadding 20\n        groupbodybackgroundcolor transparent\n}\nactor \&quot;회원\&quot; as u\nbox \&quot;FTTI 서비스\&quot;\n        participant \&quot;FTTI 앱\&quot; as app\n        participant \&quot;Firebase\&quot; as api\n        database \&quot;사용자 DB\&quot; as adb\n        database \&quot;스타일 DB\&quot; as db\nend box\n\n== 스타일 찜 ==\n\nu -&gt; app: 선호 스타일 \&quot;좋아요 버튼 클릭\&quot;\napp -&gt; api: 사용자&amp;스타일ID\napi -&gt; adb: 스타일ID 저장\n\n== 찜목록 조회 ==\n\nu -&gt; app++: 찜목록 조회\napp -&gt; api++: 사용자ID\napi -&gt; adb++: 사용자ID 조회\nreturn 찜목록\nreturn 찜목록\nreturn 찜목록 페이지\n\n== random style 조회 ==\n\nu -&gt; app++: \&quot;오늘 뭐입지?\&quot; 버튼 클릭\napp -&gt; api++: 무작위 스타일 ID\napi -&gt; db++: 스타일 ID\nreturn 스타일 사진\nreturn 스타일 사진\nreturn 랜덤스타일 페이지\n\n@enduml&quot;,&quot;format&quot;:&quot;svg&quot;}" id="RrFJMhtwo6T0DUypE1uz-1">
          <mxCell style="shape=image;noLabel=1;verticalAlign=top;aspect=fixed;imageAspect=0;image=data:image/svg+xml,PD94bWwgdmVyc2lvbj0iMS4wIiBlbmNvZGluZz0idXMtYXNjaWkiIHN0YW5kYWxvbmU9Im5vIj8+PHN2ZyB4bWxucz0iaHR0cDovL3d3dy53My5vcmcvMjAwMC9zdmciIHhtbG5zOnhsaW5rPSJodHRwOi8vd3d3LnczLm9yZy8xOTk5L3hsaW5rIiBjb250ZW50U3R5bGVUeXBlPSJ0ZXh0L2NzcyIgaGVpZ2h0PSI3MzNweCIgcHJlc2VydmVBc3BlY3RSYXRpbz0ibm9uZSIgc3R5bGU9IndpZHRoOjYyN3B4O2hlaWdodDo3MzNweDsiIHZlcnNpb249IjEuMSIgdmlld0JveD0iMCAwIDYyNyA3MzMiIHdpZHRoPSI2MjdweCIgem9vbUFuZFBhbj0ibWFnbmlmeSI+PGRlZnMvPjxnPjxyZWN0IGZpbGw9IiNEREREREQiIGhlaWdodD0iNzIxLjMzNTkiIHN0eWxlPSJzdHJva2U6IzE4MTgxODtzdHJva2Utd2lkdGg6MC41OyIgd2lkdGg9IjQyMSIgeD0iMTg4LjUiIHk9IjYiLz48dGV4dCBmaWxsPSIjMDAwMDAwIiBmb250LWZhbWlseT0ic2Fucy1zZXJpZiIgZm9udC1zaXplPSIxMyIgZm9udC13ZWlnaHQ9ImJvbGQiIGxlbmd0aEFkanVzdD0ic3BhY2luZyIgdGV4dExlbmd0aD0iNzEiIHg9IjM2My41IiB5PSIxOC4yODkxIj5GVFRJICYjNDk0MzY7JiM0ODcwODsmIzQ5ODI4OzwvdGV4dD48cmVjdCBmaWxsPSIjRkZGRkZGIiBoZWlnaHQ9IjEzOS41NzAzIiBzdHlsZT0ic3Ryb2tlOiMxODE4MTg7c3Ryb2tlLXdpZHRoOjEuMDsiIHdpZHRoPSIxMCIgeD0iMjM5IiB5PSIyODIuMzgyOCIvPjxyZWN0IGZpbGw9IiNGRkZGRkYiIGhlaWdodD0iMTM5LjU3MDMiIHN0eWxlPSJzdHJva2U6IzE4MTgxODtzdHJva2Utd2lkdGg6MS4wOyIgd2lkdGg9IjEwIiB4PSIyMzkiIHk9IjQ5MS43ODEzIi8+PHJlY3QgZmlsbD0iI0ZGRkZGRiIgaGVpZ2h0PSI4My43NDIyIiBzdHlsZT0ic3Ryb2tlOiMxODE4MTg7c3Ryb2tlLXdpZHRoOjEuMDsiIHdpZHRoPSIxMCIgeD0iMzczIiB5PSIzMTAuMjk2OSIvPjxyZWN0IGZpbGw9IiNGRkZGRkYiIGhlaWdodD0iODMuNzQyMiIgc3R5bGU9InN0cm9rZTojMTgxODE4O3N0cm9rZS13aWR0aDoxLjA7IiB3aWR0aD0iMTAiIHg9IjM3MyIgeT0iNTE5LjY5NTMiLz48cmVjdCBmaWxsPSIjRkZGRkZGIiBoZWlnaHQ9IjI3LjkxNDEiIHN0eWxlPSJzdHJva2U6IzE4MTgxODtzdHJva2Utd2lkdGg6MS4wOyIgd2lkdGg9IjEwIiB4PSI0ODciIHk9IjMzOC4yMTA5Ii8+PHJlY3QgZmlsbD0iI0ZGRkZGRiIgaGVpZ2h0PSIyNy45MTQxIiBzdHlsZT0ic3Ryb2tlOiMxODE4MTg7c3Ryb2tlLXdpZHRoOjEuMDsiIHdpZHRoPSIxMCIgeD0iNTY2IiB5PSI1NDcuNjA5NCIvPjxsaW5lIHN0eWxlPSJzdHJva2U6IzE4MTgxODtzdHJva2Utd2lkdGg6MC41O3N0cm9rZS1kYXNoYXJyYXk6NS4wLDUuMDsiIHgxPSIyMiIgeDI9IjIyIiB5MT0iODQuODk4NCIgeTI9IjY0OS4zNTE2Ii8+PGxpbmUgc3R5bGU9InN0cm9rZTojMTgxODE4O3N0cm9rZS13aWR0aDowLjU7c3Ryb2tlLWRhc2hhcnJheTo1LjAsNS4wOyIgeDE9IjI0My41IiB4Mj0iMjQzLjUiIHkxPSI4NC44OTg0IiB5Mj0iNjQ5LjM1MTYiLz48bGluZSBzdHlsZT0ic3Ryb2tlOiMxODE4MTg7c3Ryb2tlLXdpZHRoOjAuNTtzdHJva2UtZGFzaGFycmF5OjUuMCw1LjA7IiB4MT0iMzc4IiB4Mj0iMzc4IiB5MT0iODQuODk4NCIgeTI9IjY0OS4zNTE2Ii8+PGxpbmUgc3R5bGU9InN0cm9rZTojMTgxODE4O3N0cm9rZS13aWR0aDowLjU7c3Ryb2tlLWRhc2hhcnJheTo1LjAsNS4wOyIgeDE9IjQ5MS41IiB4Mj0iNDkxLjUiIHkxPSI4NC44OTg0IiB5Mj0iNjQ5LjM1MTYiLz48bGluZSBzdHlsZT0ic3Ryb2tlOiMxODE4MTg7c3Ryb2tlLXdpZHRoOjAuNTtzdHJva2UtZGFzaGFycmF5OjUuMCw1LjA7IiB4MT0iNTcwLjUiIHgyPSI1NzAuNSIgeTE9Ijg0Ljg5ODQiIHkyPSI2NDkuMzUxNiIvPjx0ZXh0IGZpbGw9IiMwMDAwMDAiIGZvbnQtZmFtaWx5PSJzYW5zLXNlcmlmIiBmb250LXNpemU9IjE0IiBsZW5ndGhBZGp1c3Q9InNwYWNpbmciIHRleHRMZW5ndGg9IjI4IiB4PSI1IiB5PSI4My4xNDg0Ij4mIzU0OTI0OyYjNTA4OTY7PC90ZXh0PjxlbGxpcHNlIGN4PSIyMiIgY3k9IjE4LjQxNDEiIGZpbGw9IiNFMkUyRjAiIHJ4PSI4IiByeT0iOCIgc3R5bGU9InN0cm9rZTojMTgxODE4O3N0cm9rZS13aWR0aDowLjU7Ii8+PHBhdGggZD0iTTIyLDI2LjQxNDEgTDIyLDUzLjQxNDEgTTksMzQuNDE0MSBMMzUsMzQuNDE0MSBNMjIsNTMuNDE0MSBMOSw2OC40MTQxIE0yMiw1My40MTQxIEwzNSw2OC40MTQxICIgZmlsbD0ibm9uZSIgc3R5bGU9InN0cm9rZTojMTgxODE4O3N0cm9rZS13aWR0aDowLjU7Ii8+PHRleHQgZmlsbD0iIzAwMDAwMCIgZm9udC1mYW1pbHk9InNhbnMtc2VyaWYiIGZvbnQtc2l6ZT0iMTQiIGxlbmd0aEFkanVzdD0ic3BhY2luZyIgdGV4dExlbmd0aD0iMjgiIHg9IjUiIHk9IjY2MS41ODU5Ij4mIzU0OTI0OyYjNTA4OTY7PC90ZXh0PjxlbGxpcHNlIGN4PSIyMiIgY3k9IjY3MS44MzU5IiBmaWxsPSIjRTJFMkYwIiByeD0iOCIgcnk9IjgiIHN0eWxlPSJzdHJva2U6IzE4MTgxODtzdHJva2Utd2lkdGg6MC41OyIvPjxwYXRoIGQ9Ik0yMiw2NzkuODM1OSBMMjIsNzA2LjgzNTkgTTksNjg3LjgzNTkgTDM1LDY4Ny44MzU5IE0yMiw3MDYuODM1OSBMOSw3MjEuODM1OSBNMjIsNzA2LjgzNTkgTDM1LDcyMS44MzU5ICIgZmlsbD0ibm9uZSIgc3R5bGU9InN0cm9rZTojMTgxODE4O3N0cm9rZS13aWR0aDowLjU7Ii8+PHJlY3QgZmlsbD0iI0UyRTJGMCIgaGVpZ2h0PSIyOC45ODQ0IiByeD0iMi41IiByeT0iMi41IiBzdHlsZT0ic3Ryb2tlOiMxODE4MTg7c3Ryb2tlLXdpZHRoOjAuNTsiIHdpZHRoPSI2MyIgeD0iMjEyLjUiIHk9IjU0LjkxNDEiLz48dGV4dCBmaWxsPSIjMDAwMDAwIiBmb250LWZhbWlseT0ic2Fucy1zZXJpZiIgZm9udC1zaXplPSIxNCIgbGVuZ3RoQWRqdXN0PSJzcGFjaW5nIiB0ZXh0TGVuZ3RoPSI0OSIgeD0iMjE5LjUiIHk9Ijc1LjE0ODQiPkZUVEkgJiM1MDU0NTs8L3RleHQ+PHJlY3QgZmlsbD0iI0UyRTJGMCIgaGVpZ2h0PSIyOC45ODQ0IiByeD0iMi41IiByeT0iMi41IiBzdHlsZT0ic3Ryb2tlOiMxODE4MTg7c3Ryb2tlLXdpZHRoOjAuNTsiIHdpZHRoPSI2MyIgeD0iMjEyLjUiIHk9IjY0OC4zNTE2Ii8+PHRleHQgZmlsbD0iIzAwMDAwMCIgZm9udC1mYW1pbHk9InNhbnMtc2VyaWYiIGZvbnQtc2l6ZT0iMTQiIGxlbmd0aEFkanVzdD0ic3BhY2luZyIgdGV4dExlbmd0aD0iNDkiIHg9IjIxOS41IiB5PSI2NjguNTg1OSI+RlRUSSAmIzUwNTQ1OzwvdGV4dD48cmVjdCBmaWxsPSIjRTJFMkYwIiBoZWlnaHQ9IjI4Ljk4NDQiIHJ4PSIyLjUiIHJ5PSIyLjUiIHN0eWxlPSJzdHJva2U6IzE4MTgxODtzdHJva2Utd2lkdGg6MC41OyIgd2lkdGg9IjcwIiB4PSIzNDMiIHk9IjU0LjkxNDEiLz48dGV4dCBmaWxsPSIjMDAwMDAwIiBmb250LWZhbWlseT0ic2Fucy1zZXJpZiIgZm9udC1zaXplPSIxNCIgbGVuZ3RoQWRqdXN0PSJzcGFjaW5nIiB0ZXh0TGVuZ3RoPSI1NiIgeD0iMzUwIiB5PSI3NS4xNDg0Ij5GaXJlYmFzZTwvdGV4dD48cmVjdCBmaWxsPSIjRTJFMkYwIiBoZWlnaHQ9IjI4Ljk4NDQiIHJ4PSIyLjUiIHJ5PSIyLjUiIHN0eWxlPSJzdHJva2U6IzE4MTgxODtzdHJva2Utd2lkdGg6MC41OyIgd2lkdGg9IjcwIiB4PSIzNDMiIHk9IjY0OC4zNTE2Ii8+PHRleHQgZmlsbD0iIzAwMDAwMCIgZm9udC1mYW1pbHk9InNhbnMtc2VyaWYiIGZvbnQtc2l6ZT0iMTQiIGxlbmd0aEFkanVzdD0ic3BhY2luZyIgdGV4dExlbmd0aD0iNTYiIHg9IjM1MCIgeT0iNjY4LjU4NTkiPkZpcmViYXNlPC90ZXh0Pjx0ZXh0IGZpbGw9IiMwMDAwMDAiIGZvbnQtZmFtaWx5PSJzYW5zLXNlcmlmIiBmb250LXNpemU9IjE0IiBsZW5ndGhBZGp1c3Q9InNwYWNpbmciIHRleHRMZW5ndGg9IjYzIiB4PSI0NTcuNSIgeT0iODMuMTQ4NCI+JiM0OTMyNDsmIzUwODU3OyYjNTEwODg7IERCPC90ZXh0PjxwYXRoIGQ9Ik00NzQsMzMuOTE0MSBDNDc0LDIzLjkxNDEgNDkyLDIzLjkxNDEgNDkyLDIzLjkxNDEgQzQ5MiwyMy45MTQxIDUxMCwyMy45MTQxIDUxMCwzMy45MTQxIEw1MTAsNTkuOTE0MSBDNTEwLDY5LjkxNDEgNDkyLDY5LjkxNDEgNDkyLDY5LjkxNDEgQzQ5Miw2OS45MTQxIDQ3NCw2OS45MTQxIDQ3NCw1OS45MTQxIEw0NzQsMzMuOTE0MSAiIGZpbGw9IiNFMkUyRjAiIHN0eWxlPSJzdHJva2U6IzE4MTgxODtzdHJva2Utd2lkdGg6MS41OyIvPjxwYXRoIGQ9Ik00NzQsMzMuOTE0MSBDNDc0LDQzLjkxNDEgNDkyLDQzLjkxNDEgNDkyLDQzLjkxNDEgQzQ5Miw0My45MTQxIDUxMCw0My45MTQxIDUxMCwzMy45MTQxICIgZmlsbD0ibm9uZSIgc3R5bGU9InN0cm9rZTojMTgxODE4O3N0cm9rZS13aWR0aDoxLjU7Ii8+PHRleHQgZmlsbD0iIzAwMDAwMCIgZm9udC1mYW1pbHk9InNhbnMtc2VyaWYiIGZvbnQtc2l6ZT0iMTQiIGxlbmd0aEFkanVzdD0ic3BhY2luZyIgdGV4dExlbmd0aD0iNjMiIHg9IjQ1Ny41IiB5PSI2NjEuNTg1OSI+JiM0OTMyNDsmIzUwODU3OyYjNTEwODg7IERCPC90ZXh0PjxwYXRoIGQ9Ik00NzQsNjczLjMzNTkgQzQ3NCw2NjMuMzM1OSA0OTIsNjYzLjMzNTkgNDkyLDY2My4zMzU5IEM0OTIsNjYzLjMzNTkgNTEwLDY2My4zMzU5IDUxMCw2NzMuMzM1OSBMNTEwLDY5OS4zMzU5IEM1MTAsNzA5LjMzNTkgNDkyLDcwOS4zMzU5IDQ5Miw3MDkuMzM1OSBDNDkyLDcwOS4zMzU5IDQ3NCw3MDkuMzM1OSA0NzQsNjk5LjMzNTkgTDQ3NCw2NzMuMzM1OSAiIGZpbGw9IiNFMkUyRjAiIHN0eWxlPSJzdHJva2U6IzE4MTgxODtzdHJva2Utd2lkdGg6MS41OyIvPjxwYXRoIGQ9Ik00NzQsNjczLjMzNTkgQzQ3NCw2ODMuMzM1OSA0OTIsNjgzLjMzNTkgNDkyLDY4My4zMzU5IEM0OTIsNjgzLjMzNTkgNTEwLDY4My4zMzU5IDUxMCw2NzMuMzM1OSAiIGZpbGw9Im5vbmUiIHN0eWxlPSJzdHJva2U6IzE4MTgxODtzdHJva2Utd2lkdGg6MS41OyIvPjx0ZXh0IGZpbGw9IiMwMDAwMDAiIGZvbnQtZmFtaWx5PSJzYW5zLXNlcmlmIiBmb250LXNpemU9IjE0IiBsZW5ndGhBZGp1c3Q9InNwYWNpbmciIHRleHRMZW5ndGg9IjYzIiB4PSI1MzYuNSIgeT0iODMuMTQ4NCI+JiM0OTgyODsmIzUzNDQwOyYjNTEwNjg7IERCPC90ZXh0PjxwYXRoIGQ9Ik01NTMsMzMuOTE0MSBDNTUzLDIzLjkxNDEgNTcxLDIzLjkxNDEgNTcxLDIzLjkxNDEgQzU3MSwyMy45MTQxIDU4OSwyMy45MTQxIDU4OSwzMy45MTQxIEw1ODksNTkuOTE0MSBDNTg5LDY5LjkxNDEgNTcxLDY5LjkxNDEgNTcxLDY5LjkxNDEgQzU3MSw2OS45MTQxIDU1Myw2OS45MTQxIDU1Myw1OS45MTQxIEw1NTMsMzMuOTE0MSAiIGZpbGw9IiNFMkUyRjAiIHN0eWxlPSJzdHJva2U6IzE4MTgxODtzdHJva2Utd2lkdGg6MS41OyIvPjxwYXRoIGQ9Ik01NTMsMzMuOTE0MSBDNTUzLDQzLjkxNDEgNTcxLDQzLjkxNDEgNTcxLDQzLjkxNDEgQzU3MSw0My45MTQxIDU4OSw0My45MTQxIDU4OSwzMy45MTQxICIgZmlsbD0ibm9uZSIgc3R5bGU9InN0cm9rZTojMTgxODE4O3N0cm9rZS13aWR0aDoxLjU7Ii8+PHRleHQgZmlsbD0iIzAwMDAwMCIgZm9udC1mYW1pbHk9InNhbnMtc2VyaWYiIGZvbnQtc2l6ZT0iMTQiIGxlbmd0aEFkanVzdD0ic3BhY2luZyIgdGV4dExlbmd0aD0iNjMiIHg9IjUzNi41IiB5PSI2NjEuNTg1OSI+JiM0OTgyODsmIzUzNDQwOyYjNTEwNjg7IERCPC90ZXh0PjxwYXRoIGQ9Ik01NTMsNjczLjMzNTkgQzU1Myw2NjMuMzM1OSA1NzEsNjYzLjMzNTkgNTcxLDY2My4zMzU5IEM1NzEsNjYzLjMzNTkgNTg5LDY2My4zMzU5IDU4OSw2NzMuMzM1OSBMNTg5LDY5OS4zMzU5IEM1ODksNzA5LjMzNTkgNTcxLDcwOS4zMzU5IDU3MSw3MDkuMzM1OSBDNTcxLDcwOS4zMzU5IDU1Myw3MDkuMzM1OSA1NTMsNjk5LjMzNTkgTDU1Myw2NzMuMzM1OSAiIGZpbGw9IiNFMkUyRjAiIHN0eWxlPSJzdHJva2U6IzE4MTgxODtzdHJva2Utd2lkdGg6MS41OyIvPjxwYXRoIGQ9Ik01NTMsNjczLjMzNTkgQzU1Myw2ODMuMzM1OSA1NzEsNjgzLjMzNTkgNTcxLDY4My4zMzU5IEM1NzEsNjgzLjMzNTkgNTg5LDY4My4zMzU5IDU4OSw2NzMuMzM1OSAiIGZpbGw9Im5vbmUiIHN0eWxlPSJzdHJva2U6IzE4MTgxODtzdHJva2Utd2lkdGg6MS41OyIvPjxyZWN0IGZpbGw9IiNGRkZGRkYiIGhlaWdodD0iMTM5LjU3MDMiIHN0eWxlPSJzdHJva2U6IzE4MTgxODtzdHJva2Utd2lkdGg6MS4wOyIgd2lkdGg9IjEwIiB4PSIyMzkiIHk9IjI4Mi4zODI4Ii8+PHJlY3QgZmlsbD0iI0ZGRkZGRiIgaGVpZ2h0PSIxMzkuNTcwMyIgc3R5bGU9InN0cm9rZTojMTgxODE4O3N0cm9rZS13aWR0aDoxLjA7IiB3aWR0aD0iMTAiIHg9IjIzOSIgeT0iNDkxLjc4MTMiLz48cmVjdCBmaWxsPSIjRkZGRkZGIiBoZWlnaHQ9IjgzLjc0MjIiIHN0eWxlPSJzdHJva2U6IzE4MTgxODtzdHJva2Utd2lkdGg6MS4wOyIgd2lkdGg9IjEwIiB4PSIzNzMiIHk9IjMxMC4yOTY5Ii8+PHJlY3QgZmlsbD0iI0ZGRkZGRiIgaGVpZ2h0PSI4My43NDIyIiBzdHlsZT0ic3Ryb2tlOiMxODE4MTg7c3Ryb2tlLXdpZHRoOjEuMDsiIHdpZHRoPSIxMCIgeD0iMzczIiB5PSI1MTkuNjk1MyIvPjxyZWN0IGZpbGw9IiNGRkZGRkYiIGhlaWdodD0iMjcuOTE0MSIgc3R5bGU9InN0cm9rZTojMTgxODE4O3N0cm9rZS13aWR0aDoxLjA7IiB3aWR0aD0iMTAiIHg9IjQ4NyIgeT0iMzM4LjIxMDkiLz48cmVjdCBmaWxsPSIjRkZGRkZGIiBoZWlnaHQ9IjI3LjkxNDEiIHN0eWxlPSJzdHJva2U6IzE4MTgxODtzdHJva2Utd2lkdGg6MS4wOyIgd2lkdGg9IjEwIiB4PSI1NjYiIHk9IjU0Ny42MDk0Ii8+PHJlY3QgZmlsbD0iI0VFRUVFRSIgaGVpZ2h0PSIzIiBzdHlsZT0ic3Ryb2tlOiNFRUVFRUU7c3Ryb2tlLXdpZHRoOjEuMDsiIHdpZHRoPSI2MjAuNSIgeD0iMCIgeT0iMTE0Ljg1NTUiLz48bGluZSBzdHlsZT0ic3Ryb2tlOiMwMDAwMDA7c3Ryb2tlLXdpZHRoOjEuMDsiIHgxPSIwIiB4Mj0iNjIwLjUiIHkxPSIxMTQuODU1NSIgeTI9IjExNC44NTU1Ii8+PGxpbmUgc3R5bGU9InN0cm9rZTojMDAwMDAwO3N0cm9rZS13aWR0aDoxLjA7IiB4MT0iMCIgeDI9IjYyMC41IiB5MT0iMTE3Ljg1NTUiIHkyPSIxMTcuODU1NSIvPjxyZWN0IGZpbGw9IiNFRUVFRUUiIGhlaWdodD0iMjEuOTE0MSIgc3R5bGU9InN0cm9rZTojMDAwMDAwO3N0cm9rZS13aWR0aDoyLjA7IiB3aWR0aD0iODAiIHg9IjI3MC4yNSIgeT0iMTA0Ljg5ODQiLz48dGV4dCBmaWxsPSIjMDAwMDAwIiBmb250LWZhbWlseT0ic2Fucy1zZXJpZiIgZm9udC1zaXplPSIxMyIgZm9udC13ZWlnaHQ9ImJvbGQiIGxlbmd0aEFkanVzdD0ic3BhY2luZyIgdGV4dExlbmd0aD0iNTkiIHg9IjI3Ni4yNSIgeT0iMTIxLjE4NzUiPiYjNDk4Mjg7JiM1MzQ0MDsmIzUxMDY4OyAmIzUyMjUyOzwvdGV4dD48cG9seWdvbiBmaWxsPSIjMTgxODE4IiBwb2ludHM9IjIzMiwxNTIuNzI2NiwyNDIsMTU2LjcyNjYsMjMyLDE2MC43MjY2LDIzNiwxNTYuNzI2NiIgc3R5bGU9InN0cm9rZTojMTgxODE4O3N0cm9rZS13aWR0aDoxLjA7Ii8+PGxpbmUgc3R5bGU9InN0cm9rZTojMTgxODE4O3N0cm9rZS13aWR0aDoxLjA7IiB4MT0iMjIiIHgyPSIyMzgiIHkxPSIxNTYuNzI2NiIgeTI9IjE1Ni43MjY2Ii8+PHRleHQgZmlsbD0iIzAwMDAwMCIgZm9udC1mYW1pbHk9InNhbnMtc2VyaWYiIGZvbnQtc2l6ZT0iMTMiIGxlbmd0aEFkanVzdD0ic3BhY2luZyIgdGV4dExlbmd0aD0iMTk4IiB4PSIyOSIgeT0iMTUzLjEwMTYiPiYjNDk0NDA7JiM1NDg0MDsgJiM0OTgyODsmIzUzNDQwOyYjNTEwNjg7ICImIzUxMzM5OyYjNTA1MDA7JiM1MDgzNjsgJiM0ODI2MDsmIzUzOTQ4OyAmIzUzMzY0OyYjNDc1MzM7IjwvdGV4dD48cG9seWdvbiBmaWxsPSIjMTgxODE4IiBwb2ludHM9IjM2NiwxODAuNjQwNiwzNzYsMTg0LjY0MDYsMzY2LDE4OC42NDA2LDM3MCwxODQuNjQwNiIgc3R5bGU9InN0cm9rZTojMTgxODE4O3N0cm9rZS13aWR0aDoxLjA7Ii8+PGxpbmUgc3R5bGU9InN0cm9rZTojMTgxODE4O3N0cm9rZS13aWR0aDoxLjA7IiB4MT0iMjQ0IiB4Mj0iMzcyIiB5MT0iMTg0LjY0MDYiIHkyPSIxODQuNjQwNiIvPjx0ZXh0IGZpbGw9IiMwMDAwMDAiIGZvbnQtZmFtaWx5PSJzYW5zLXNlcmlmIiBmb250LXNpemU9IjEzIiBsZW5ndGhBZGp1c3Q9InNwYWNpbmciIHRleHRMZW5ndGg9Ijk4IiB4PSIyNTEiIHk9IjE4MS4wMTU2Ij4mIzQ5MzI0OyYjNTA4NTc7JiM1MTA4ODsmYW1wOyYjNDk4Mjg7JiM1MzQ0MDsmIzUxMDY4O0lEPC90ZXh0Pjxwb2x5Z29uIGZpbGw9IiMxODE4MTgiIHBvaW50cz0iNDgwLDIwOC41NTQ3LDQ5MCwyMTIuNTU0Nyw0ODAsMjE2LjU1NDcsNDg0LDIxMi41NTQ3IiBzdHlsZT0ic3Ryb2tlOiMxODE4MTg7c3Ryb2tlLXdpZHRoOjEuMDsiLz48bGluZSBzdHlsZT0ic3Ryb2tlOiMxODE4MTg7c3Ryb2tlLXdpZHRoOjEuMDsiIHgxPSIzNzgiIHgyPSI0ODYiIHkxPSIyMTIuNTU0NyIgeTI9IjIxMi41NTQ3Ii8+PHRleHQgZmlsbD0iIzAwMDAwMCIgZm9udC1mYW1pbHk9InNhbnMtc2VyaWYiIGZvbnQtc2l6ZT0iMTMiIGxlbmd0aEFkanVzdD0ic3BhY2luZyIgdGV4dExlbmd0aD0iODUiIHg9IjM4NSIgeT0iMjA4LjkyOTciPiYjNDk4Mjg7JiM1MzQ0MDsmIzUxMDY4O0lEICYjNTEyMDA7JiM1MTEwOTs8L3RleHQ+PHJlY3QgZmlsbD0iI0VFRUVFRSIgaGVpZ2h0PSIzIiBzdHlsZT0ic3Ryb2tlOiNFRUVFRUU7c3Ryb2tlLXdpZHRoOjEuMDsiIHdpZHRoPSI2MjAuNSIgeD0iMCIgeT0iMjQwLjUxMTciLz48bGluZSBzdHlsZT0ic3Ryb2tlOiMwMDAwMDA7c3Ryb2tlLXdpZHRoOjEuMDsiIHgxPSIwIiB4Mj0iNjIwLjUiIHkxPSIyNDAuNTExNyIgeTI9IjI0MC41MTE3Ii8+PGxpbmUgc3R5bGU9InN0cm9rZTojMDAwMDAwO3N0cm9rZS13aWR0aDoxLjA7IiB4MT0iMCIgeDI9IjYyMC41IiB5MT0iMjQzLjUxMTciIHkyPSIyNDMuNTExNyIvPjxyZWN0IGZpbGw9IiNFRUVFRUUiIGhlaWdodD0iMjEuOTE0MSIgc3R5bGU9InN0cm9rZTojMDAwMDAwO3N0cm9rZS13aWR0aDoyLjA7IiB3aWR0aD0iOTMiIHg9IjI2My43NSIgeT0iMjMwLjU1NDciLz48dGV4dCBmaWxsPSIjMDAwMDAwIiBmb250LWZhbWlseT0ic2Fucy1zZXJpZiIgZm9udC1zaXplPSIxMyIgZm9udC13ZWlnaHQ9ImJvbGQiIGxlbmd0aEFkanVzdD0ic3BhY2luZyIgdGV4dExlbmd0aD0iNzIiIHg9IjI2OS43NSIgeT0iMjQ2Ljg0MzgiPiYjNTIyNTI7JiM0Nzc4NTsmIzQ3MTk3OyAmIzUxMzEyOyYjNTQ5MjQ7PC90ZXh0Pjxwb2x5Z29uIGZpbGw9IiMxODE4MTgiIHBvaW50cz0iMjI3LDI3OC4zODI4LDIzNywyODIuMzgyOCwyMjcsMjg2LjM4MjgsMjMxLDI4Mi4zODI4IiBzdHlsZT0ic3Ryb2tlOiMxODE4MTg7c3Ryb2tlLXdpZHRoOjEuMDsiLz48bGluZSBzdHlsZT0ic3Ryb2tlOiMxODE4MTg7c3Ryb2tlLXdpZHRoOjEuMDsiIHgxPSIyMiIgeDI9IjIzMyIgeTE9IjI4Mi4zODI4IiB5Mj0iMjgyLjM4MjgiLz48dGV4dCBmaWxsPSIjMDAwMDAwIiBmb250LWZhbWlseT0ic2Fucy1zZXJpZiIgZm9udC1zaXplPSIxMyIgbGVuZ3RoQWRqdXN0PSJzcGFjaW5nIiB0ZXh0TGVuZ3RoPSI3MiIgeD0iMjkiIHk9IjI3OC43NTc4Ij4mIzUyMjUyOyYjNDc3ODU7JiM0NzE5NzsgJiM1MTMxMjsmIzU0OTI0OzwvdGV4dD48cG9seWdvbiBmaWxsPSIjMTgxODE4IiBwb2ludHM9IjM2MSwzMDYuMjk2OSwzNzEsMzEwLjI5NjksMzYxLDMxNC4yOTY5LDM2NSwzMTAuMjk2OSIgc3R5bGU9InN0cm9rZTojMTgxODE4O3N0cm9rZS13aWR0aDoxLjA7Ii8+PGxpbmUgc3R5bGU9InN0cm9rZTojMTgxODE4O3N0cm9rZS13aWR0aDoxLjA7IiB4MT0iMjQ5IiB4Mj0iMzY3IiB5MT0iMzEwLjI5NjkiIHkyPSIzMTAuMjk2OSIvPjx0ZXh0IGZpbGw9IiMwMDAwMDAiIGZvbnQtZmFtaWx5PSJzYW5zLXNlcmlmIiBmb250LXNpemU9IjEzIiBsZW5ndGhBZGp1c3Q9InNwYWNpbmciIHRleHRMZW5ndGg9IjUyIiB4PSIyNTYiIHk9IjMwNi42NzE5Ij4mIzQ5MzI0OyYjNTA4NTc7JiM1MTA4ODtJRDwvdGV4dD48cG9seWdvbiBmaWxsPSIjMTgxODE4IiBwb2ludHM9IjQ3NSwzMzQuMjEwOSw0ODUsMzM4LjIxMDksNDc1LDM0Mi4yMTA5LDQ3OSwzMzguMjEwOSIgc3R5bGU9InN0cm9rZTojMTgxODE4O3N0cm9rZS13aWR0aDoxLjA7Ii8+PGxpbmUgc3R5bGU9InN0cm9rZTojMTgxODE4O3N0cm9rZS13aWR0aDoxLjA7IiB4MT0iMzgzIiB4Mj0iNDgxIiB5MT0iMzM4LjIxMDkiIHkyPSIzMzguMjEwOSIvPjx0ZXh0IGZpbGw9IiMwMDAwMDAiIGZvbnQtZmFtaWx5PSJzYW5zLXNlcmlmIiBmb250LXNpemU9IjEzIiBsZW5ndGhBZGp1c3Q9InNwYWNpbmciIHRleHRMZW5ndGg9Ijg1IiB4PSIzOTAiIHk9IjMzNC41ODU5Ij4mIzQ5MzI0OyYjNTA4NTc7JiM1MTA4ODtJRCAmIzUxMzEyOyYjNTQ5MjQ7PC90ZXh0Pjxwb2x5Z29uIGZpbGw9IiMxODE4MTgiIHBvaW50cz0iMzk0LDM2Mi4xMjUsMzg0LDM2Ni4xMjUsMzk0LDM3MC4xMjUsMzkwLDM2Ni4xMjUiIHN0eWxlPSJzdHJva2U6IzE4MTgxODtzdHJva2Utd2lkdGg6MS4wOyIvPjxsaW5lIHN0eWxlPSJzdHJva2U6IzE4MTgxODtzdHJva2Utd2lkdGg6MS4wO3N0cm9rZS1kYXNoYXJyYXk6Mi4wLDIuMDsiIHgxPSIzODgiIHgyPSI0OTEiIHkxPSIzNjYuMTI1IiB5Mj0iMzY2LjEyNSIvPjx0ZXh0IGZpbGw9IiMwMDAwMDAiIGZvbnQtZmFtaWx5PSJzYW5zLXNlcmlmIiBmb250LXNpemU9IjEzIiBsZW5ndGhBZGp1c3Q9InNwYWNpbmciIHRleHRMZW5ndGg9IjM5IiB4PSI0MDAiIHk9IjM2Mi41Ij4mIzUyMjUyOyYjNDc3ODU7JiM0NzE5Nzs8L3RleHQ+PHBvbHlnb24gZmlsbD0iIzE4MTgxOCIgcG9pbnRzPSIyNjAsMzkwLjAzOTEsMjUwLDM5NC4wMzkxLDI2MCwzOTguMDM5MSwyNTYsMzk0LjAzOTEiIHN0eWxlPSJzdHJva2U6IzE4MTgxODtzdHJva2Utd2lkdGg6MS4wOyIvPjxsaW5lIHN0eWxlPSJzdHJva2U6IzE4MTgxODtzdHJva2Utd2lkdGg6MS4wO3N0cm9rZS1kYXNoYXJyYXk6Mi4wLDIuMDsiIHgxPSIyNTQiIHgyPSIzNzciIHkxPSIzOTQuMDM5MSIgeTI9IjM5NC4wMzkxIi8+PHRleHQgZmlsbD0iIzAwMDAwMCIgZm9udC1mYW1pbHk9InNhbnMtc2VyaWYiIGZvbnQtc2l6ZT0iMTMiIGxlbmd0aEFkanVzdD0ic3BhY2luZyIgdGV4dExlbmd0aD0iMzkiIHg9IjI2NiIgeT0iMzkwLjQxNDEiPiYjNTIyNTI7JiM0Nzc4NTsmIzQ3MTk3OzwvdGV4dD48cG9seWdvbiBmaWxsPSIjMTgxODE4IiBwb2ludHM9IjMzLDQxNy45NTMxLDIzLDQyMS45NTMxLDMzLDQyNS45NTMxLDI5LDQyMS45NTMxIiBzdHlsZT0ic3Ryb2tlOiMxODE4MTg7c3Ryb2tlLXdpZHRoOjEuMDsiLz48bGluZSBzdHlsZT0ic3Ryb2tlOiMxODE4MTg7c3Ryb2tlLXdpZHRoOjEuMDtzdHJva2UtZGFzaGFycmF5OjIuMCwyLjA7IiB4MT0iMjciIHgyPSIyNDMiIHkxPSI0MjEuOTUzMSIgeTI9IjQyMS45NTMxIi8+PHRleHQgZmlsbD0iIzAwMDAwMCIgZm9udC1mYW1pbHk9InNhbnMtc2VyaWYiIGZvbnQtc2l6ZT0iMTMiIGxlbmd0aEFkanVzdD0ic3BhY2luZyIgdGV4dExlbmd0aD0iODUiIHg9IjM5IiB5PSI0MTguMzI4MSI+JiM1MjI1MjsmIzQ3Nzg1OyYjNDcxOTc7ICYjNTQxNjg7JiM1MTA2MDsmIzUxNjQ4OzwvdGV4dD48cmVjdCBmaWxsPSIjRUVFRUVFIiBoZWlnaHQ9IjMiIHN0eWxlPSJzdHJva2U6I0VFRUVFRTtzdHJva2Utd2lkdGg6MS4wOyIgd2lkdGg9IjYyMC41IiB4PSIwIiB5PSI0NDkuOTEwMiIvPjxsaW5lIHN0eWxlPSJzdHJva2U6IzAwMDAwMDtzdHJva2Utd2lkdGg6MS4wOyIgeDE9IjAiIHgyPSI2MjAuNSIgeTE9IjQ0OS45MTAyIiB5Mj0iNDQ5LjkxMDIiLz48bGluZSBzdHlsZT0ic3Ryb2tlOiMwMDAwMDA7c3Ryb2tlLXdpZHRoOjEuMDsiIHgxPSIwIiB4Mj0iNjIwLjUiIHkxPSI0NTIuOTEwMiIgeTI9IjQ1Mi45MTAyIi8+PHJlY3QgZmlsbD0iI0VFRUVFRSIgaGVpZ2h0PSIyMS45MTQxIiBzdHlsZT0ic3Ryb2tlOiMwMDAwMDA7c3Ryb2tlLXdpZHRoOjIuMDsiIHdpZHRoPSIxMzUiIHg9IjI0Mi43NSIgeT0iNDM5Ljk1MzEiLz48dGV4dCBmaWxsPSIjMDAwMDAwIiBmb250LWZhbWlseT0ic2Fucy1zZXJpZiIgZm9udC1zaXplPSIxMyIgZm9udC13ZWlnaHQ9ImJvbGQiIGxlbmd0aEFkanVzdD0ic3BhY2luZyIgdGV4dExlbmd0aD0iMTE0IiB4PSIyNDguNzUiIHk9IjQ1Ni4yNDIyIj5yYW5kb20gc3R5bGUgJiM1MTMxMjsmIzU0OTI0OzwvdGV4dD48cG9seWdvbiBmaWxsPSIjMTgxODE4IiBwb2ludHM9IjIyNyw0ODcuNzgxMywyMzcsNDkxLjc4MTMsMjI3LDQ5NS43ODEzLDIzMSw0OTEuNzgxMyIgc3R5bGU9InN0cm9rZTojMTgxODE4O3N0cm9rZS13aWR0aDoxLjA7Ii8+PGxpbmUgc3R5bGU9InN0cm9rZTojMTgxODE4O3N0cm9rZS13aWR0aDoxLjA7IiB4MT0iMjIiIHgyPSIyMzMiIHkxPSI0OTEuNzgxMyIgeTI9IjQ5MS43ODEzIi8+PHRleHQgZmlsbD0iIzAwMDAwMCIgZm9udC1mYW1pbHk9InNhbnMtc2VyaWYiIGZvbnQtc2l6ZT0iMTMiIGxlbmd0aEFkanVzdD0ic3BhY2luZyIgdGV4dExlbmd0aD0iMTU5IiB4PSIyOSIgeT0iNDg4LjE1NjMiPiImIzUwNzI0OyYjNDU3MjA7ICYjNDc5NTI7JiM1MTA3NzsmIzUxNjQ4Oz8iICYjNDgyNjA7JiM1Mzk0ODsgJiM1MzM2NDsmIzQ3NTMzOzwvdGV4dD48cG9seWdvbiBmaWxsPSIjMTgxODE4IiBwb2ludHM9IjM2MSw1MTUuNjk1MywzNzEsNTE5LjY5NTMsMzYxLDUyMy42OTUzLDM2NSw1MTkuNjk1MyIgc3R5bGU9InN0cm9rZTojMTgxODE4O3N0cm9rZS13aWR0aDoxLjA7Ii8+PGxpbmUgc3R5bGU9InN0cm9rZTojMTgxODE4O3N0cm9rZS13aWR0aDoxLjA7IiB4MT0iMjQ5IiB4Mj0iMzY3IiB5MT0iNTE5LjY5NTMiIHkyPSI1MTkuNjk1MyIvPjx0ZXh0IGZpbGw9IiMwMDAwMDAiIGZvbnQtZmFtaWx5PSJzYW5zLXNlcmlmIiBmb250LXNpemU9IjEzIiBsZW5ndGhBZGp1c3Q9InNwYWNpbmciIHRleHRMZW5ndGg9IjEwNSIgeD0iMjU2IiB5PSI1MTYuMDcwMyI+JiM0NzkyNDsmIzUxMDg5OyYjNTA5NDg7ICYjNDk4Mjg7JiM1MzQ0MDsmIzUxMDY4OyBJRDwvdGV4dD48cG9seWdvbiBmaWxsPSIjMTgxODE4IiBwb2ludHM9IjU1NCw1NDMuNjA5NCw1NjQsNTQ3LjYwOTQsNTU0LDU1MS42MDk0LDU1OCw1NDcuNjA5NCIgc3R5bGU9InN0cm9rZTojMTgxODE4O3N0cm9rZS13aWR0aDoxLjA7Ii8+PGxpbmUgc3R5bGU9InN0cm9rZTojMTgxODE4O3N0cm9rZS13aWR0aDoxLjA7IiB4MT0iMzgzIiB4Mj0iNTYwIiB5MT0iNTQ3LjYwOTQiIHkyPSI1NDcuNjA5NCIvPjx0ZXh0IGZpbGw9IiMwMDAwMDAiIGZvbnQtZmFtaWx5PSJzYW5zLXNlcmlmIiBmb250LXNpemU9IjEzIiBsZW5ndGhBZGp1c3Q9InNwYWNpbmciIHRleHRMZW5ndGg9IjU5IiB4PSIzOTAiIHk9IjU0My45ODQ0Ij4mIzQ5ODI4OyYjNTM0NDA7JiM1MTA2ODsgSUQ8L3RleHQ+PHBvbHlnb24gZmlsbD0iIzE4MTgxOCIgcG9pbnRzPSIzOTQsNTcxLjUyMzQsMzg0LDU3NS41MjM0LDM5NCw1NzkuNTIzNCwzOTAsNTc1LjUyMzQiIHN0eWxlPSJzdHJva2U6IzE4MTgxODtzdHJva2Utd2lkdGg6MS4wOyIvPjxsaW5lIHN0eWxlPSJzdHJva2U6IzE4MTgxODtzdHJva2Utd2lkdGg6MS4wO3N0cm9rZS1kYXNoYXJyYXk6Mi4wLDIuMDsiIHgxPSIzODgiIHgyPSI1NzAiIHkxPSI1NzUuNTIzNCIgeTI9IjU3NS41MjM0Ii8+PHRleHQgZmlsbD0iIzAwMDAwMCIgZm9udC1mYW1pbHk9InNhbnMtc2VyaWYiIGZvbnQtc2l6ZT0iMTMiIGxlbmd0aEFkanVzdD0ic3BhY2luZyIgdGV4dExlbmd0aD0iNzIiIHg9IjQwMCIgeT0iNTcxLjg5ODQiPiYjNDk4Mjg7JiM1MzQ0MDsmIzUxMDY4OyAmIzQ5MzI0OyYjNTE2NTI7PC90ZXh0Pjxwb2x5Z29uIGZpbGw9IiMxODE4MTgiIHBvaW50cz0iMjYwLDU5OS40Mzc1LDI1MCw2MDMuNDM3NSwyNjAsNjA3LjQzNzUsMjU2LDYwMy40Mzc1IiBzdHlsZT0ic3Ryb2tlOiMxODE4MTg7c3Ryb2tlLXdpZHRoOjEuMDsiLz48bGluZSBzdHlsZT0ic3Ryb2tlOiMxODE4MTg7c3Ryb2tlLXdpZHRoOjEuMDtzdHJva2UtZGFzaGFycmF5OjIuMCwyLjA7IiB4MT0iMjU0IiB4Mj0iMzc3IiB5MT0iNjAzLjQzNzUiIHkyPSI2MDMuNDM3NSIvPjx0ZXh0IGZpbGw9IiMwMDAwMDAiIGZvbnQtZmFtaWx5PSJzYW5zLXNlcmlmIiBmb250LXNpemU9IjEzIiBsZW5ndGhBZGp1c3Q9InNwYWNpbmciIHRleHRMZW5ndGg9IjcyIiB4PSIyNjYiIHk9IjU5OS44MTI1Ij4mIzQ5ODI4OyYjNTM0NDA7JiM1MTA2ODsgJiM0OTMyNDsmIzUxNjUyOzwvdGV4dD48cG9seWdvbiBmaWxsPSIjMTgxODE4IiBwb2ludHM9IjMzLDYyNy4zNTE2LDIzLDYzMS4zNTE2LDMzLDYzNS4zNTE2LDI5LDYzMS4zNTE2IiBzdHlsZT0ic3Ryb2tlOiMxODE4MTg7c3Ryb2tlLXdpZHRoOjEuMDsiLz48bGluZSBzdHlsZT0ic3Ryb2tlOiMxODE4MTg7c3Ryb2tlLXdpZHRoOjEuMDtzdHJva2UtZGFzaGFycmF5OjIuMCwyLjA7IiB4MT0iMjciIHgyPSIyNDMiIHkxPSI2MzEuMzUxNiIgeTI9IjYzMS4zNTE2Ii8+PHRleHQgZmlsbD0iIzAwMDAwMCIgZm9udC1mYW1pbHk9InNhbnMtc2VyaWYiIGZvbnQtc2l6ZT0iMTMiIGxlbmd0aEFkanVzdD0ic3BhY2luZyIgdGV4dExlbmd0aD0iMTExIiB4PSIzOSIgeT0iNjI3LjcyNjYiPiYjNDcwMDQ7JiM0NTkyNDsmIzQ5ODI4OyYjNTM0NDA7JiM1MTA2ODsgJiM1NDE2ODsmIzUxMDYwOyYjNTE2NDg7PC90ZXh0PjwhLS1TUkM9W1hQQkRJaUQwNThOdHluSU5NUldmV2hlaUw0NTRTRXlCSjNBMzE3S0l5bUNNNFFoNkpWc1hXYUFmUUwyZllnOUdmR2s1bGo3U2w4RkpkcEhmUkpOQlV4d0pVeXZEbDZyQkVpbmJrczBtU3RsQmpHRjlKTmw3VGk1dGNWSXE5QUhGbDhvb3pudDZrSU10Tzc0WERfVjROWTJhQVUyMG1GM0hXYy1QYmlFYWRyZ001YVBnUnZMWnNCcHlyenYzbWFuVnBzWklFQ1ZSNldOY0dLMXExZzNoY3ZpUlc2NmFsYUVpamtZcWhJYnF5ejR0Q2lVUEdMY2tDOVdkWGZHcmVaWnBNS3kwWWlUbHM3WjFrMFBoZ21FQzZ6RW1RWWl2Z00ycGNzQVE0ZkJ0aGFQOGdHSVBaa3E4SVlMMjBmWFZ4WUtod1l2dElWcWhYcjF5RUNFUjQxbE5lM3gzZkRnNXZBWVpkanVmcVZwMFBjYlJjY25rdkRuT3F1Skw5eFhIWERtU3lBdzJ5VUNXSXBqSWhvX2dsV2J1dHpSdDdPakpBMUhfMFJjclZKYlRGQlBrR2FjamhsMDNMc1FsXzd5MG9NS1RjbnJ5aGxKSndmLTJzX2V0eXlpeE9iUFdZbE1NZ2pQMWxUU21Gak5FNUpmLWtPYTZ3Z3MzeUhMNk9VeGVNUGJYYnhvSVBpby1lY3h3N0Z1dEx0NmFCYmdQRWNoczBtMDBdLS0+PC9nPjwvc3ZnPg==;" vertex="1" parent="1">
            <mxGeometry x="370" y="240" width="627" height="733" as="geometry" />
          </mxCell>
        </UserObject>
      </root>
    </mxGraphModel>
  </diagram>
  <diagram id="mGG8tqJJ9MZhAiYYDrz3" name="페이지-3">
    <mxGraphModel dx="1706" dy="846" grid="1" gridSize="10" guides="1" tooltips="1" connect="1" arrows="1" fold="1" page="1" pageScale="1" pageWidth="827" pageHeight="1169" math="0" shadow="0">
      <root>
        <mxCell id="0" />
        <mxCell id="1" parent="0" />
        <UserObject label="" plantUmlData="{&quot;data&quot;:&quot;@startuml\nskinparam backgroundcolor transparent\nskinparam boxpadding 10\nskinparam sequence {\n        participantpadding 20\n        groupbodybackgroundcolor transparent\n}\nactor \&quot;회원\&quot; as u\nbox \&quot;FTTI 서비스\&quot;\n        participant \&quot;FTTI 앱\&quot; as app\n        participant \&quot;Firebase\&quot; as api\n        database \&quot;사용자 DB\&quot; as adb\n        database \&quot;스타일 DB\&quot; as db\nend box\n\n== 아이템 구매: 추천 스타일 ==\n\nu -&gt; app++: 스타일 사진 클릭\napp -&gt; api++: 스타일 ID\napi -&gt; db++: 스타일ID 조회\nreturn 쇼핑몰 링크\nreturn 쇼핑몰 링크\nreturn 쇼핑몰 페이지\n\n== 아이템 구매: 찜목록 ==\n\nu -&gt; app++: 스타일 사진 클릭\napp -&gt; api++: 스타일 ID\napi -&gt; db++: 스타일ID 조회\nreturn 쇼핑몰 링크\nreturn 쇼핑몰 링크\nreturn 쇼핑몰 페이지\n\n== 아이템 구매: 랜덤 스타일 ==\n\nu -&gt; app++: 스타일 사진 클릭\napp -&gt; api++: 스타일 ID\napi -&gt; db++: 스타일ID 조회\nreturn 쇼핑몰 링크\nreturn 쇼핑몰 링크\nreturn 쇼핑몰 페이지\n\n@enduml&quot;,&quot;format&quot;:&quot;svg&quot;}" id="QH8hyHhQ7NNGg3B0UA6I-1">
          <mxCell style="shape=image;noLabel=1;verticalAlign=top;aspect=fixed;imageAspect=0;image=data:image/svg+xml,PD94bWwgdmVyc2lvbj0iMS4wIiBlbmNvZGluZz0idXMtYXNjaWkiIHN0YW5kYWxvbmU9Im5vIj8+PHN2ZyB4bWxucz0iaHR0cDovL3d3dy53My5vcmcvMjAwMC9zdmciIHhtbG5zOnhsaW5rPSJodHRwOi8vd3d3LnczLm9yZy8xOTk5L3hsaW5rIiBjb250ZW50U3R5bGVUeXBlPSJ0ZXh0L2NzcyIgaGVpZ2h0PSI4MTdweCIgcHJlc2VydmVBc3BlY3RSYXRpbz0ibm9uZSIgc3R5bGU9IndpZHRoOjUwMnB4O2hlaWdodDo4MTdweDsiIHZlcnNpb249IjEuMSIgdmlld0JveD0iMCAwIDUwMiA4MTciIHdpZHRoPSI1MDJweCIgem9vbUFuZFBhbj0ibWFnbmlmeSI+PGRlZnMvPjxnPjxyZWN0IGZpbGw9IiNEREREREQiIGhlaWdodD0iODA1LjA3ODEiIHN0eWxlPSJzdHJva2U6IzE4MTgxODtzdHJva2Utd2lkdGg6MC41OyIgd2lkdGg9IjM4OSIgeD0iOTUuNSIgeT0iNiIvPjx0ZXh0IGZpbGw9IiMwMDAwMDAiIGZvbnQtZmFtaWx5PSJzYW5zLXNlcmlmIiBmb250LXNpemU9IjEzIiBmb250LXdlaWdodD0iYm9sZCIgbGVuZ3RoQWRqdXN0PSJzcGFjaW5nIiB0ZXh0TGVuZ3RoPSI3MSIgeD0iMjU0LjUiIHk9IjE4LjI4OTEiPkZUVEkgJiM0OTQzNjsmIzQ4NzA4OyYjNDk4Mjg7PC90ZXh0PjxyZWN0IGZpbGw9IiNGRkZGRkYiIGhlaWdodD0iMTM5LjU3MDMiIHN0eWxlPSJzdHJva2U6IzE4MTgxODtzdHJva2Utd2lkdGg6MS4wOyIgd2lkdGg9IjEwIiB4PSIxNDYiIHk9IjE1Ni43MjY2Ii8+PHJlY3QgZmlsbD0iI0ZGRkZGRiIgaGVpZ2h0PSIxMzkuNTcwMyIgc3R5bGU9InN0cm9rZTojMTgxODE4O3N0cm9rZS13aWR0aDoxLjA7IiB3aWR0aD0iMTAiIHg9IjE0NiIgeT0iMzY2LjEyNSIvPjxyZWN0IGZpbGw9IiNGRkZGRkYiIGhlaWdodD0iMTM5LjU3MDMiIHN0eWxlPSJzdHJva2U6IzE4MTgxODtzdHJva2Utd2lkdGg6MS4wOyIgd2lkdGg9IjEwIiB4PSIxNDYiIHk9IjU3NS41MjM0Ii8+PHJlY3QgZmlsbD0iI0ZGRkZGRiIgaGVpZ2h0PSI4My43NDIyIiBzdHlsZT0ic3Ryb2tlOiMxODE4MTg7c3Ryb2tlLXdpZHRoOjEuMDsiIHdpZHRoPSIxMCIgeD0iMjYyLjUiIHk9IjE4NC42NDA2Ii8+PHJlY3QgZmlsbD0iI0ZGRkZGRiIgaGVpZ2h0PSI4My43NDIyIiBzdHlsZT0ic3Ryb2tlOiMxODE4MTg7c3Ryb2tlLXdpZHRoOjEuMDsiIHdpZHRoPSIxMCIgeD0iMjYyLjUiIHk9IjM5NC4wMzkxIi8+PHJlY3QgZmlsbD0iI0ZGRkZGRiIgaGVpZ2h0PSI4My43NDIyIiBzdHlsZT0ic3Ryb2tlOiMxODE4MTg7c3Ryb2tlLXdpZHRoOjEuMDsiIHdpZHRoPSIxMCIgeD0iMjYyLjUiIHk9IjYwMy40Mzc1Ii8+PHJlY3QgZmlsbD0iI0ZGRkZGRiIgaGVpZ2h0PSIyNy45MTQxIiBzdHlsZT0ic3Ryb2tlOiMxODE4MTg7c3Ryb2tlLXdpZHRoOjEuMDsiIHdpZHRoPSIxMCIgeD0iNDQxIiB5PSIyMTIuNTU0NyIvPjxyZWN0IGZpbGw9IiNGRkZGRkYiIGhlaWdodD0iMjcuOTE0MSIgc3R5bGU9InN0cm9rZTojMTgxODE4O3N0cm9rZS13aWR0aDoxLjA7IiB3aWR0aD0iMTAiIHg9IjQ0MSIgeT0iNDIxLjk1MzEiLz48cmVjdCBmaWxsPSIjRkZGRkZGIiBoZWlnaHQ9IjI3LjkxNDEiIHN0eWxlPSJzdHJva2U6IzE4MTgxODtzdHJva2Utd2lkdGg6MS4wOyIgd2lkdGg9IjEwIiB4PSI0NDEiIHk9IjYzMS4zNTE2Ii8+PGxpbmUgc3R5bGU9InN0cm9rZTojMTgxODE4O3N0cm9rZS13aWR0aDowLjU7c3Ryb2tlLWRhc2hhcnJheTo1LjAsNS4wOyIgeDE9IjIyIiB4Mj0iMjIiIHkxPSI4NC44OTg0IiB5Mj0iNzMzLjA5MzgiLz48bGluZSBzdHlsZT0ic3Ryb2tlOiMxODE4MTg7c3Ryb2tlLXdpZHRoOjAuNTtzdHJva2UtZGFzaGFycmF5OjUuMCw1LjA7IiB4MT0iMTUwLjUiIHgyPSIxNTAuNSIgeTE9Ijg0Ljg5ODQiIHkyPSI3MzMuMDkzOCIvPjxsaW5lIHN0eWxlPSJzdHJva2U6IzE4MTgxODtzdHJva2Utd2lkdGg6MC41O3N0cm9rZS1kYXNoYXJyYXk6NS4wLDUuMDsiIHgxPSIyNjcuNSIgeDI9IjI2Ny41IiB5MT0iODQuODk4NCIgeTI9IjczMy4wOTM4Ii8+PGxpbmUgc3R5bGU9InN0cm9rZTojMTgxODE4O3N0cm9rZS13aWR0aDowLjU7c3Ryb2tlLWRhc2hhcnJheTo1LjAsNS4wOyIgeDE9IjM2Ni41IiB4Mj0iMzY2LjUiIHkxPSI4NC44OTg0IiB5Mj0iNzMzLjA5MzgiLz48bGluZSBzdHlsZT0ic3Ryb2tlOiMxODE4MTg7c3Ryb2tlLXdpZHRoOjAuNTtzdHJva2UtZGFzaGFycmF5OjUuMCw1LjA7IiB4MT0iNDQ1LjUiIHgyPSI0NDUuNSIgeTE9Ijg0Ljg5ODQiIHkyPSI3MzMuMDkzOCIvPjx0ZXh0IGZpbGw9IiMwMDAwMDAiIGZvbnQtZmFtaWx5PSJzYW5zLXNlcmlmIiBmb250LXNpemU9IjE0IiBsZW5ndGhBZGp1c3Q9InNwYWNpbmciIHRleHRMZW5ndGg9IjI4IiB4PSI1IiB5PSI4My4xNDg0Ij4mIzU0OTI0OyYjNTA4OTY7PC90ZXh0PjxlbGxpcHNlIGN4PSIyMiIgY3k9IjE4LjQxNDEiIGZpbGw9IiNFMkUyRjAiIHJ4PSI4IiByeT0iOCIgc3R5bGU9InN0cm9rZTojMTgxODE4O3N0cm9rZS13aWR0aDowLjU7Ii8+PHBhdGggZD0iTTIyLDI2LjQxNDEgTDIyLDUzLjQxNDEgTTksMzQuNDE0MSBMMzUsMzQuNDE0MSBNMjIsNTMuNDE0MSBMOSw2OC40MTQxIE0yMiw1My40MTQxIEwzNSw2OC40MTQxICIgZmlsbD0ibm9uZSIgc3R5bGU9InN0cm9rZTojMTgxODE4O3N0cm9rZS13aWR0aDowLjU7Ii8+PHRleHQgZmlsbD0iIzAwMDAwMCIgZm9udC1mYW1pbHk9InNhbnMtc2VyaWYiIGZvbnQtc2l6ZT0iMTQiIGxlbmd0aEFkanVzdD0ic3BhY2luZyIgdGV4dExlbmd0aD0iMjgiIHg9IjUiIHk9Ijc0NS4zMjgxIj4mIzU0OTI0OyYjNTA4OTY7PC90ZXh0PjxlbGxpcHNlIGN4PSIyMiIgY3k9Ijc1NS41NzgxIiBmaWxsPSIjRTJFMkYwIiByeD0iOCIgcnk9IjgiIHN0eWxlPSJzdHJva2U6IzE4MTgxODtzdHJva2Utd2lkdGg6MC41OyIvPjxwYXRoIGQ9Ik0yMiw3NjMuNTc4MSBMMjIsNzkwLjU3ODEgTTksNzcxLjU3ODEgTDM1LDc3MS41NzgxIE0yMiw3OTAuNTc4MSBMOSw4MDUuNTc4MSBNMjIsNzkwLjU3ODEgTDM1LDgwNS41NzgxICIgZmlsbD0ibm9uZSIgc3R5bGU9InN0cm9rZTojMTgxODE4O3N0cm9rZS13aWR0aDowLjU7Ii8+PHJlY3QgZmlsbD0iI0UyRTJGMCIgaGVpZ2h0PSIyOC45ODQ0IiByeD0iMi41IiByeT0iMi41IiBzdHlsZT0ic3Ryb2tlOiMxODE4MTg7c3Ryb2tlLXdpZHRoOjAuNTsiIHdpZHRoPSI2MyIgeD0iMTE5LjUiIHk9IjU0LjkxNDEiLz48dGV4dCBmaWxsPSIjMDAwMDAwIiBmb250LWZhbWlseT0ic2Fucy1zZXJpZiIgZm9udC1zaXplPSIxNCIgbGVuZ3RoQWRqdXN0PSJzcGFjaW5nIiB0ZXh0TGVuZ3RoPSI0OSIgeD0iMTI2LjUiIHk9Ijc1LjE0ODQiPkZUVEkgJiM1MDU0NTs8L3RleHQ+PHJlY3QgZmlsbD0iI0UyRTJGMCIgaGVpZ2h0PSIyOC45ODQ0IiByeD0iMi41IiByeT0iMi41IiBzdHlsZT0ic3Ryb2tlOiMxODE4MTg7c3Ryb2tlLXdpZHRoOjAuNTsiIHdpZHRoPSI2MyIgeD0iMTE5LjUiIHk9IjczMi4wOTM4Ii8+PHRleHQgZmlsbD0iIzAwMDAwMCIgZm9udC1mYW1pbHk9InNhbnMtc2VyaWYiIGZvbnQtc2l6ZT0iMTQiIGxlbmd0aEFkanVzdD0ic3BhY2luZyIgdGV4dExlbmd0aD0iNDkiIHg9IjEyNi41IiB5PSI3NTIuMzI4MSI+RlRUSSAmIzUwNTQ1OzwvdGV4dD48cmVjdCBmaWxsPSIjRTJFMkYwIiBoZWlnaHQ9IjI4Ljk4NDQiIHJ4PSIyLjUiIHJ5PSIyLjUiIHN0eWxlPSJzdHJva2U6IzE4MTgxODtzdHJva2Utd2lkdGg6MC41OyIgd2lkdGg9IjcwIiB4PSIyMzIuNSIgeT0iNTQuOTE0MSIvPjx0ZXh0IGZpbGw9IiMwMDAwMDAiIGZvbnQtZmFtaWx5PSJzYW5zLXNlcmlmIiBmb250LXNpemU9IjE0IiBsZW5ndGhBZGp1c3Q9InNwYWNpbmciIHRleHRMZW5ndGg9IjU2IiB4PSIyMzkuNSIgeT0iNzUuMTQ4NCI+RmlyZWJhc2U8L3RleHQ+PHJlY3QgZmlsbD0iI0UyRTJGMCIgaGVpZ2h0PSIyOC45ODQ0IiByeD0iMi41IiByeT0iMi41IiBzdHlsZT0ic3Ryb2tlOiMxODE4MTg7c3Ryb2tlLXdpZHRoOjAuNTsiIHdpZHRoPSI3MCIgeD0iMjMyLjUiIHk9IjczMi4wOTM4Ii8+PHRleHQgZmlsbD0iIzAwMDAwMCIgZm9udC1mYW1pbHk9InNhbnMtc2VyaWYiIGZvbnQtc2l6ZT0iMTQiIGxlbmd0aEFkanVzdD0ic3BhY2luZyIgdGV4dExlbmd0aD0iNTYiIHg9IjIzOS41IiB5PSI3NTIuMzI4MSI+RmlyZWJhc2U8L3RleHQ+PHRleHQgZmlsbD0iIzAwMDAwMCIgZm9udC1mYW1pbHk9InNhbnMtc2VyaWYiIGZvbnQtc2l6ZT0iMTQiIGxlbmd0aEFkanVzdD0ic3BhY2luZyIgdGV4dExlbmd0aD0iNjMiIHg9IjMzMi41IiB5PSI4My4xNDg0Ij4mIzQ5MzI0OyYjNTA4NTc7JiM1MTA4ODsgREI8L3RleHQ+PHBhdGggZD0iTTM0OSwzMy45MTQxIEMzNDksMjMuOTE0MSAzNjcsMjMuOTE0MSAzNjcsMjMuOTE0MSBDMzY3LDIzLjkxNDEgMzg1LDIzLjkxNDEgMzg1LDMzLjkxNDEgTDM4NSw1OS45MTQxIEMzODUsNjkuOTE0MSAzNjcsNjkuOTE0MSAzNjcsNjkuOTE0MSBDMzY3LDY5LjkxNDEgMzQ5LDY5LjkxNDEgMzQ5LDU5LjkxNDEgTDM0OSwzMy45MTQxICIgZmlsbD0iI0UyRTJGMCIgc3R5bGU9InN0cm9rZTojMTgxODE4O3N0cm9rZS13aWR0aDoxLjU7Ii8+PHBhdGggZD0iTTM0OSwzMy45MTQxIEMzNDksNDMuOTE0MSAzNjcsNDMuOTE0MSAzNjcsNDMuOTE0MSBDMzY3LDQzLjkxNDEgMzg1LDQzLjkxNDEgMzg1LDMzLjkxNDEgIiBmaWxsPSJub25lIiBzdHlsZT0ic3Ryb2tlOiMxODE4MTg7c3Ryb2tlLXdpZHRoOjEuNTsiLz48dGV4dCBmaWxsPSIjMDAwMDAwIiBmb250LWZhbWlseT0ic2Fucy1zZXJpZiIgZm9udC1zaXplPSIxNCIgbGVuZ3RoQWRqdXN0PSJzcGFjaW5nIiB0ZXh0TGVuZ3RoPSI2MyIgeD0iMzMyLjUiIHk9Ijc0NS4zMjgxIj4mIzQ5MzI0OyYjNTA4NTc7JiM1MTA4ODsgREI8L3RleHQ+PHBhdGggZD0iTTM0OSw3NTcuMDc4MSBDMzQ5LDc0Ny4wNzgxIDM2Nyw3NDcuMDc4MSAzNjcsNzQ3LjA3ODEgQzM2Nyw3NDcuMDc4MSAzODUsNzQ3LjA3ODEgMzg1LDc1Ny4wNzgxIEwzODUsNzgzLjA3ODEgQzM4NSw3OTMuMDc4MSAzNjcsNzkzLjA3ODEgMzY3LDc5My4wNzgxIEMzNjcsNzkzLjA3ODEgMzQ5LDc5My4wNzgxIDM0OSw3ODMuMDc4MSBMMzQ5LDc1Ny4wNzgxICIgZmlsbD0iI0UyRTJGMCIgc3R5bGU9InN0cm9rZTojMTgxODE4O3N0cm9rZS13aWR0aDoxLjU7Ii8+PHBhdGggZD0iTTM0OSw3NTcuMDc4MSBDMzQ5LDc2Ny4wNzgxIDM2Nyw3NjcuMDc4MSAzNjcsNzY3LjA3ODEgQzM2Nyw3NjcuMDc4MSAzODUsNzY3LjA3ODEgMzg1LDc1Ny4wNzgxICIgZmlsbD0ibm9uZSIgc3R5bGU9InN0cm9rZTojMTgxODE4O3N0cm9rZS13aWR0aDoxLjU7Ii8+PHRleHQgZmlsbD0iIzAwMDAwMCIgZm9udC1mYW1pbHk9InNhbnMtc2VyaWYiIGZvbnQtc2l6ZT0iMTQiIGxlbmd0aEFkanVzdD0ic3BhY2luZyIgdGV4dExlbmd0aD0iNjMiIHg9IjQxMS41IiB5PSI4My4xNDg0Ij4mIzQ5ODI4OyYjNTM0NDA7JiM1MTA2ODsgREI8L3RleHQ+PHBhdGggZD0iTTQyOCwzMy45MTQxIEM0MjgsMjMuOTE0MSA0NDYsMjMuOTE0MSA0NDYsMjMuOTE0MSBDNDQ2LDIzLjkxNDEgNDY0LDIzLjkxNDEgNDY0LDMzLjkxNDEgTDQ2NCw1OS45MTQxIEM0NjQsNjkuOTE0MSA0NDYsNjkuOTE0MSA0NDYsNjkuOTE0MSBDNDQ2LDY5LjkxNDEgNDI4LDY5LjkxNDEgNDI4LDU5LjkxNDEgTDQyOCwzMy45MTQxICIgZmlsbD0iI0UyRTJGMCIgc3R5bGU9InN0cm9rZTojMTgxODE4O3N0cm9rZS13aWR0aDoxLjU7Ii8+PHBhdGggZD0iTTQyOCwzMy45MTQxIEM0MjgsNDMuOTE0MSA0NDYsNDMuOTE0MSA0NDYsNDMuOTE0MSBDNDQ2LDQzLjkxNDEgNDY0LDQzLjkxNDEgNDY0LDMzLjkxNDEgIiBmaWxsPSJub25lIiBzdHlsZT0ic3Ryb2tlOiMxODE4MTg7c3Ryb2tlLXdpZHRoOjEuNTsiLz48dGV4dCBmaWxsPSIjMDAwMDAwIiBmb250LWZhbWlseT0ic2Fucy1zZXJpZiIgZm9udC1zaXplPSIxNCIgbGVuZ3RoQWRqdXN0PSJzcGFjaW5nIiB0ZXh0TGVuZ3RoPSI2MyIgeD0iNDExLjUiIHk9Ijc0NS4zMjgxIj4mIzQ5ODI4OyYjNTM0NDA7JiM1MTA2ODsgREI8L3RleHQ+PHBhdGggZD0iTTQyOCw3NTcuMDc4MSBDNDI4LDc0Ny4wNzgxIDQ0Niw3NDcuMDc4MSA0NDYsNzQ3LjA3ODEgQzQ0Niw3NDcuMDc4MSA0NjQsNzQ3LjA3ODEgNDY0LDc1Ny4wNzgxIEw0NjQsNzgzLjA3ODEgQzQ2NCw3OTMuMDc4MSA0NDYsNzkzLjA3ODEgNDQ2LDc5My4wNzgxIEM0NDYsNzkzLjA3ODEgNDI4LDc5My4wNzgxIDQyOCw3ODMuMDc4MSBMNDI4LDc1Ny4wNzgxICIgZmlsbD0iI0UyRTJGMCIgc3R5bGU9InN0cm9rZTojMTgxODE4O3N0cm9rZS13aWR0aDoxLjU7Ii8+PHBhdGggZD0iTTQyOCw3NTcuMDc4MSBDNDI4LDc2Ny4wNzgxIDQ0Niw3NjcuMDc4MSA0NDYsNzY3LjA3ODEgQzQ0Niw3NjcuMDc4MSA0NjQsNzY3LjA3ODEgNDY0LDc1Ny4wNzgxICIgZmlsbD0ibm9uZSIgc3R5bGU9InN0cm9rZTojMTgxODE4O3N0cm9rZS13aWR0aDoxLjU7Ii8+PHJlY3QgZmlsbD0iI0ZGRkZGRiIgaGVpZ2h0PSIxMzkuNTcwMyIgc3R5bGU9InN0cm9rZTojMTgxODE4O3N0cm9rZS13aWR0aDoxLjA7IiB3aWR0aD0iMTAiIHg9IjE0NiIgeT0iMTU2LjcyNjYiLz48cmVjdCBmaWxsPSIjRkZGRkZGIiBoZWlnaHQ9IjEzOS41NzAzIiBzdHlsZT0ic3Ryb2tlOiMxODE4MTg7c3Ryb2tlLXdpZHRoOjEuMDsiIHdpZHRoPSIxMCIgeD0iMTQ2IiB5PSIzNjYuMTI1Ii8+PHJlY3QgZmlsbD0iI0ZGRkZGRiIgaGVpZ2h0PSIxMzkuNTcwMyIgc3R5bGU9InN0cm9rZTojMTgxODE4O3N0cm9rZS13aWR0aDoxLjA7IiB3aWR0aD0iMTAiIHg9IjE0NiIgeT0iNTc1LjUyMzQiLz48cmVjdCBmaWxsPSIjRkZGRkZGIiBoZWlnaHQ9IjgzLjc0MjIiIHN0eWxlPSJzdHJva2U6IzE4MTgxODtzdHJva2Utd2lkdGg6MS4wOyIgd2lkdGg9IjEwIiB4PSIyNjIuNSIgeT0iMTg0LjY0MDYiLz48cmVjdCBmaWxsPSIjRkZGRkZGIiBoZWlnaHQ9IjgzLjc0MjIiIHN0eWxlPSJzdHJva2U6IzE4MTgxODtzdHJva2Utd2lkdGg6MS4wOyIgd2lkdGg9IjEwIiB4PSIyNjIuNSIgeT0iMzk0LjAzOTEiLz48cmVjdCBmaWxsPSIjRkZGRkZGIiBoZWlnaHQ9IjgzLjc0MjIiIHN0eWxlPSJzdHJva2U6IzE4MTgxODtzdHJva2Utd2lkdGg6MS4wOyIgd2lkdGg9IjEwIiB4PSIyNjIuNSIgeT0iNjAzLjQzNzUiLz48cmVjdCBmaWxsPSIjRkZGRkZGIiBoZWlnaHQ9IjI3LjkxNDEiIHN0eWxlPSJzdHJva2U6IzE4MTgxODtzdHJva2Utd2lkdGg6MS4wOyIgd2lkdGg9IjEwIiB4PSI0NDEiIHk9IjIxMi41NTQ3Ii8+PHJlY3QgZmlsbD0iI0ZGRkZGRiIgaGVpZ2h0PSIyNy45MTQxIiBzdHlsZT0ic3Ryb2tlOiMxODE4MTg7c3Ryb2tlLXdpZHRoOjEuMDsiIHdpZHRoPSIxMCIgeD0iNDQxIiB5PSI0MjEuOTUzMSIvPjxyZWN0IGZpbGw9IiNGRkZGRkYiIGhlaWdodD0iMjcuOTE0MSIgc3R5bGU9InN0cm9rZTojMTgxODE4O3N0cm9rZS13aWR0aDoxLjA7IiB3aWR0aD0iMTAiIHg9IjQ0MSIgeT0iNjMxLjM1MTYiLz48cmVjdCBmaWxsPSIjRUVFRUVFIiBoZWlnaHQ9IjMiIHN0eWxlPSJzdHJva2U6I0VFRUVFRTtzdHJva2Utd2lkdGg6MS4wOyIgd2lkdGg9IjQ5NS41IiB4PSIwIiB5PSIxMTQuODU1NSIvPjxsaW5lIHN0eWxlPSJzdHJva2U6IzAwMDAwMDtzdHJva2Utd2lkdGg6MS4wOyIgeDE9IjAiIHgyPSI0OTUuNSIgeTE9IjExNC44NTU1IiB5Mj0iMTE0Ljg1NTUiLz48bGluZSBzdHlsZT0ic3Ryb2tlOiMwMDAwMDA7c3Ryb2tlLXdpZHRoOjEuMDsiIHgxPSIwIiB4Mj0iNDk1LjUiIHkxPSIxMTcuODU1NSIgeTI9IjExNy44NTU1Ii8+PHJlY3QgZmlsbD0iI0VFRUVFRSIgaGVpZ2h0PSIyMS45MTQxIiBzdHlsZT0ic3Ryb2tlOiMwMDAwMDA7c3Ryb2tlLXdpZHRoOjIuMDsiIHdpZHRoPSIxNzgiIHg9IjE1OC43NSIgeT0iMTA0Ljg5ODQiLz48dGV4dCBmaWxsPSIjMDAwMDAwIiBmb250LWZhbWlseT0ic2Fucy1zZXJpZiIgZm9udC1zaXplPSIxMyIgZm9udC13ZWlnaHQ9ImJvbGQiIGxlbmd0aEFkanVzdD0ic3BhY2luZyIgdGV4dExlbmd0aD0iMTU3IiB4PSIxNjQuNzUiIHk9IjEyMS4xODc1Ij4mIzUwNTAwOyYjNTEwNjA7JiM1MzU5NjsgJiM0NDM5NjsmIzQ3NTg4OzogJiM1MjYyODsmIzUyMzgwOyAmIzQ5ODI4OyYjNTM0NDA7JiM1MTA2ODs8L3RleHQ+PHBvbHlnb24gZmlsbD0iIzE4MTgxOCIgcG9pbnRzPSIxMzQsMTUyLjcyNjYsMTQ0LDE1Ni43MjY2LDEzNCwxNjAuNzI2NiwxMzgsMTU2LjcyNjYiIHN0eWxlPSJzdHJva2U6IzE4MTgxODtzdHJva2Utd2lkdGg6MS4wOyIvPjxsaW5lIHN0eWxlPSJzdHJva2U6IzE4MTgxODtzdHJva2Utd2lkdGg6MS4wOyIgeDE9IjIyIiB4Mj0iMTQwIiB5MT0iMTU2LjcyNjYiIHkyPSIxNTYuNzI2NiIvPjx0ZXh0IGZpbGw9IiMwMDAwMDAiIGZvbnQtZmFtaWx5PSJzYW5zLXNlcmlmIiBmb250LXNpemU9IjEzIiBsZW5ndGhBZGp1c3Q9InNwYWNpbmciIHRleHRMZW5ndGg9IjEwNSIgeD0iMjkiIHk9IjE1My4xMDE2Ij4mIzQ5ODI4OyYjNTM0NDA7JiM1MTA2ODsgJiM0OTMyNDsmIzUxNjUyOyAmIzUzMzY0OyYjNDc1MzM7PC90ZXh0Pjxwb2x5Z29uIGZpbGw9IiMxODE4MTgiIHBvaW50cz0iMjUwLjUsMTgwLjY0MDYsMjYwLjUsMTg0LjY0MDYsMjUwLjUsMTg4LjY0MDYsMjU0LjUsMTg0LjY0MDYiIHN0eWxlPSJzdHJva2U6IzE4MTgxODtzdHJva2Utd2lkdGg6MS4wOyIvPjxsaW5lIHN0eWxlPSJzdHJva2U6IzE4MTgxODtzdHJva2Utd2lkdGg6MS4wOyIgeDE9IjE1NiIgeDI9IjI1Ni41IiB5MT0iMTg0LjY0MDYiIHkyPSIxODQuNjQwNiIvPjx0ZXh0IGZpbGw9IiMwMDAwMDAiIGZvbnQtZmFtaWx5PSJzYW5zLXNlcmlmIiBmb250LXNpemU9IjEzIiBsZW5ndGhBZGp1c3Q9InNwYWNpbmciIHRleHRMZW5ndGg9IjU5IiB4PSIxNjMiIHk9IjE4MS4wMTU2Ij4mIzQ5ODI4OyYjNTM0NDA7JiM1MTA2ODsgSUQ8L3RleHQ+PHBvbHlnb24gZmlsbD0iIzE4MTgxOCIgcG9pbnRzPSI0MjksMjA4LjU1NDcsNDM5LDIxMi41NTQ3LDQyOSwyMTYuNTU0Nyw0MzMsMjEyLjU1NDciIHN0eWxlPSJzdHJva2U6IzE4MTgxODtzdHJva2Utd2lkdGg6MS4wOyIvPjxsaW5lIHN0eWxlPSJzdHJva2U6IzE4MTgxODtzdHJva2Utd2lkdGg6MS4wOyIgeDE9IjI3Mi41IiB4Mj0iNDM1IiB5MT0iMjEyLjU1NDciIHkyPSIyMTIuNTU0NyIvPjx0ZXh0IGZpbGw9IiMwMDAwMDAiIGZvbnQtZmFtaWx5PSJzYW5zLXNlcmlmIiBmb250LXNpemU9IjEzIiBsZW5ndGhBZGp1c3Q9InNwYWNpbmciIHRleHRMZW5ndGg9Ijg1IiB4PSIyNzkuNSIgeT0iMjA4LjkyOTciPiYjNDk4Mjg7JiM1MzQ0MDsmIzUxMDY4O0lEICYjNTEzMTI7JiM1NDkyNDs8L3RleHQ+PHBvbHlnb24gZmlsbD0iIzE4MTgxOCIgcG9pbnRzPSIyODMuNSwyMzYuNDY4OCwyNzMuNSwyNDAuNDY4OCwyODMuNSwyNDQuNDY4OCwyNzkuNSwyNDAuNDY4OCIgc3R5bGU9InN0cm9rZTojMTgxODE4O3N0cm9rZS13aWR0aDoxLjA7Ii8+PGxpbmUgc3R5bGU9InN0cm9rZTojMTgxODE4O3N0cm9rZS13aWR0aDoxLjA7c3Ryb2tlLWRhc2hhcnJheToyLjAsMi4wOyIgeDE9IjI3Ny41IiB4Mj0iNDQ1IiB5MT0iMjQwLjQ2ODgiIHkyPSIyNDAuNDY4OCIvPjx0ZXh0IGZpbGw9IiMwMDAwMDAiIGZvbnQtZmFtaWx5PSJzYW5zLXNlcmlmIiBmb250LXNpemU9IjEzIiBsZW5ndGhBZGp1c3Q9InNwYWNpbmciIHRleHRMZW5ndGg9IjcyIiB4PSIyODkuNSIgeT0iMjM2Ljg0MzgiPiYjNDk2NjA7JiM1NDYwOTsmIzQ3NzkyOyAmIzQ3NTUzOyYjNTMzNTY7PC90ZXh0Pjxwb2x5Z29uIGZpbGw9IiMxODE4MTgiIHBvaW50cz0iMTY3LDI2NC4zODI4LDE1NywyNjguMzgyOCwxNjcsMjcyLjM4MjgsMTYzLDI2OC4zODI4IiBzdHlsZT0ic3Ryb2tlOiMxODE4MTg7c3Ryb2tlLXdpZHRoOjEuMDsiLz48bGluZSBzdHlsZT0ic3Ryb2tlOiMxODE4MTg7c3Ryb2tlLXdpZHRoOjEuMDtzdHJva2UtZGFzaGFycmF5OjIuMCwyLjA7IiB4MT0iMTYxIiB4Mj0iMjY2LjUiIHkxPSIyNjguMzgyOCIgeTI9IjI2OC4zODI4Ii8+PHRleHQgZmlsbD0iIzAwMDAwMCIgZm9udC1mYW1pbHk9InNhbnMtc2VyaWYiIGZvbnQtc2l6ZT0iMTMiIGxlbmd0aEFkanVzdD0ic3BhY2luZyIgdGV4dExlbmd0aD0iNzIiIHg9IjE3MyIgeT0iMjY0Ljc1NzgiPiYjNDk2NjA7JiM1NDYwOTsmIzQ3NzkyOyAmIzQ3NTUzOyYjNTMzNTY7PC90ZXh0Pjxwb2x5Z29uIGZpbGw9IiMxODE4MTgiIHBvaW50cz0iMzMsMjkyLjI5NjksMjMsMjk2LjI5NjksMzMsMzAwLjI5NjksMjksMjk2LjI5NjkiIHN0eWxlPSJzdHJva2U6IzE4MTgxODtzdHJva2Utd2lkdGg6MS4wOyIvPjxsaW5lIHN0eWxlPSJzdHJva2U6IzE4MTgxODtzdHJva2Utd2lkdGg6MS4wO3N0cm9rZS1kYXNoYXJyYXk6Mi4wLDIuMDsiIHgxPSIyNyIgeDI9IjE1MCIgeTE9IjI5Ni4yOTY5IiB5Mj0iMjk2LjI5NjkiLz48dGV4dCBmaWxsPSIjMDAwMDAwIiBmb250LWZhbWlseT0ic2Fucy1zZXJpZiIgZm9udC1zaXplPSIxMyIgbGVuZ3RoQWRqdXN0PSJzcGFjaW5nIiB0ZXh0TGVuZ3RoPSI4NSIgeD0iMzkiIHk9IjI5Mi42NzE5Ij4mIzQ5NjYwOyYjNTQ2MDk7JiM0Nzc5MjsgJiM1NDE2ODsmIzUxMDYwOyYjNTE2NDg7PC90ZXh0PjxyZWN0IGZpbGw9IiNFRUVFRUUiIGhlaWdodD0iMyIgc3R5bGU9InN0cm9rZTojRUVFRUVFO3N0cm9rZS13aWR0aDoxLjA7IiB3aWR0aD0iNDk1LjUiIHg9IjAiIHk9IjMyNC4yNTM5Ii8+PGxpbmUgc3R5bGU9InN0cm9rZTojMDAwMDAwO3N0cm9rZS13aWR0aDoxLjA7IiB4MT0iMCIgeDI9IjQ5NS41IiB5MT0iMzI0LjI1MzkiIHkyPSIzMjQuMjUzOSIvPjxsaW5lIHN0eWxlPSJzdHJva2U6IzAwMDAwMDtzdHJva2Utd2lkdGg6MS4wOyIgeDE9IjAiIHgyPSI0OTUuNSIgeTE9IjMyNy4yNTM5IiB5Mj0iMzI3LjI1MzkiLz48cmVjdCBmaWxsPSIjRUVFRUVFIiBoZWlnaHQ9IjIxLjkxNDEiIHN0eWxlPSJzdHJva2U6IzAwMDAwMDtzdHJva2Utd2lkdGg6Mi4wOyIgd2lkdGg9IjE0NSIgeD0iMTc1LjI1IiB5PSIzMTQuMjk2OSIvPjx0ZXh0IGZpbGw9IiMwMDAwMDAiIGZvbnQtZmFtaWx5PSJzYW5zLXNlcmlmIiBmb250LXNpemU9IjEzIiBmb250LXdlaWdodD0iYm9sZCIgbGVuZ3RoQWRqdXN0PSJzcGFjaW5nIiB0ZXh0TGVuZ3RoPSIxMjQiIHg9IjE4MS4yNSIgeT0iMzMwLjU4NTkiPiYjNTA1MDA7JiM1MTA2MDsmIzUzNTk2OyAmIzQ0Mzk2OyYjNDc1ODg7OiAmIzUyMjUyOyYjNDc3ODU7JiM0NzE5Nzs8L3RleHQ+PHBvbHlnb24gZmlsbD0iIzE4MTgxOCIgcG9pbnRzPSIxMzQsMzYyLjEyNSwxNDQsMzY2LjEyNSwxMzQsMzcwLjEyNSwxMzgsMzY2LjEyNSIgc3R5bGU9InN0cm9rZTojMTgxODE4O3N0cm9rZS13aWR0aDoxLjA7Ii8+PGxpbmUgc3R5bGU9InN0cm9rZTojMTgxODE4O3N0cm9rZS13aWR0aDoxLjA7IiB4MT0iMjIiIHgyPSIxNDAiIHkxPSIzNjYuMTI1IiB5Mj0iMzY2LjEyNSIvPjx0ZXh0IGZpbGw9IiMwMDAwMDAiIGZvbnQtZmFtaWx5PSJzYW5zLXNlcmlmIiBmb250LXNpemU9IjEzIiBsZW5ndGhBZGp1c3Q9InNwYWNpbmciIHRleHRMZW5ndGg9IjEwNSIgeD0iMjkiIHk9IjM2Mi41Ij4mIzQ5ODI4OyYjNTM0NDA7JiM1MTA2ODsgJiM0OTMyNDsmIzUxNjUyOyAmIzUzMzY0OyYjNDc1MzM7PC90ZXh0Pjxwb2x5Z29uIGZpbGw9IiMxODE4MTgiIHBvaW50cz0iMjUwLjUsMzkwLjAzOTEsMjYwLjUsMzk0LjAzOTEsMjUwLjUsMzk4LjAzOTEsMjU0LjUsMzk0LjAzOTEiIHN0eWxlPSJzdHJva2U6IzE4MTgxODtzdHJva2Utd2lkdGg6MS4wOyIvPjxsaW5lIHN0eWxlPSJzdHJva2U6IzE4MTgxODtzdHJva2Utd2lkdGg6MS4wOyIgeDE9IjE1NiIgeDI9IjI1Ni41IiB5MT0iMzk0LjAzOTEiIHkyPSIzOTQuMDM5MSIvPjx0ZXh0IGZpbGw9IiMwMDAwMDAiIGZvbnQtZmFtaWx5PSJzYW5zLXNlcmlmIiBmb250LXNpemU9IjEzIiBsZW5ndGhBZGp1c3Q9InNwYWNpbmciIHRleHRMZW5ndGg9IjU5IiB4PSIxNjMiIHk9IjM5MC40MTQxIj4mIzQ5ODI4OyYjNTM0NDA7JiM1MTA2ODsgSUQ8L3RleHQ+PHBvbHlnb24gZmlsbD0iIzE4MTgxOCIgcG9pbnRzPSI0MjksNDE3Ljk1MzEsNDM5LDQyMS45NTMxLDQyOSw0MjUuOTUzMSw0MzMsNDIxLjk1MzEiIHN0eWxlPSJzdHJva2U6IzE4MTgxODtzdHJva2Utd2lkdGg6MS4wOyIvPjxsaW5lIHN0eWxlPSJzdHJva2U6IzE4MTgxODtzdHJva2Utd2lkdGg6MS4wOyIgeDE9IjI3Mi41IiB4Mj0iNDM1IiB5MT0iNDIxLjk1MzEiIHkyPSI0MjEuOTUzMSIvPjx0ZXh0IGZpbGw9IiMwMDAwMDAiIGZvbnQtZmFtaWx5PSJzYW5zLXNlcmlmIiBmb250LXNpemU9IjEzIiBsZW5ndGhBZGp1c3Q9InNwYWNpbmciIHRleHRMZW5ndGg9Ijg1IiB4PSIyNzkuNSIgeT0iNDE4LjMyODEiPiYjNDk4Mjg7JiM1MzQ0MDsmIzUxMDY4O0lEICYjNTEzMTI7JiM1NDkyNDs8L3RleHQ+PHBvbHlnb24gZmlsbD0iIzE4MTgxOCIgcG9pbnRzPSIyODMuNSw0NDUuODY3MiwyNzMuNSw0NDkuODY3MiwyODMuNSw0NTMuODY3MiwyNzkuNSw0NDkuODY3MiIgc3R5bGU9InN0cm9rZTojMTgxODE4O3N0cm9rZS13aWR0aDoxLjA7Ii8+PGxpbmUgc3R5bGU9InN0cm9rZTojMTgxODE4O3N0cm9rZS13aWR0aDoxLjA7c3Ryb2tlLWRhc2hhcnJheToyLjAsMi4wOyIgeDE9IjI3Ny41IiB4Mj0iNDQ1IiB5MT0iNDQ5Ljg2NzIiIHkyPSI0NDkuODY3MiIvPjx0ZXh0IGZpbGw9IiMwMDAwMDAiIGZvbnQtZmFtaWx5PSJzYW5zLXNlcmlmIiBmb250LXNpemU9IjEzIiBsZW5ndGhBZGp1c3Q9InNwYWNpbmciIHRleHRMZW5ndGg9IjcyIiB4PSIyODkuNSIgeT0iNDQ2LjI0MjIiPiYjNDk2NjA7JiM1NDYwOTsmIzQ3NzkyOyAmIzQ3NTUzOyYjNTMzNTY7PC90ZXh0Pjxwb2x5Z29uIGZpbGw9IiMxODE4MTgiIHBvaW50cz0iMTY3LDQ3My43ODEzLDE1Nyw0NzcuNzgxMywxNjcsNDgxLjc4MTMsMTYzLDQ3Ny43ODEzIiBzdHlsZT0ic3Ryb2tlOiMxODE4MTg7c3Ryb2tlLXdpZHRoOjEuMDsiLz48bGluZSBzdHlsZT0ic3Ryb2tlOiMxODE4MTg7c3Ryb2tlLXdpZHRoOjEuMDtzdHJva2UtZGFzaGFycmF5OjIuMCwyLjA7IiB4MT0iMTYxIiB4Mj0iMjY2LjUiIHkxPSI0NzcuNzgxMyIgeTI9IjQ3Ny43ODEzIi8+PHRleHQgZmlsbD0iIzAwMDAwMCIgZm9udC1mYW1pbHk9InNhbnMtc2VyaWYiIGZvbnQtc2l6ZT0iMTMiIGxlbmd0aEFkanVzdD0ic3BhY2luZyIgdGV4dExlbmd0aD0iNzIiIHg9IjE3MyIgeT0iNDc0LjE1NjMiPiYjNDk2NjA7JiM1NDYwOTsmIzQ3NzkyOyAmIzQ3NTUzOyYjNTMzNTY7PC90ZXh0Pjxwb2x5Z29uIGZpbGw9IiMxODE4MTgiIHBvaW50cz0iMzMsNTAxLjY5NTMsMjMsNTA1LjY5NTMsMzMsNTA5LjY5NTMsMjksNTA1LjY5NTMiIHN0eWxlPSJzdHJva2U6IzE4MTgxODtzdHJva2Utd2lkdGg6MS4wOyIvPjxsaW5lIHN0eWxlPSJzdHJva2U6IzE4MTgxODtzdHJva2Utd2lkdGg6MS4wO3N0cm9rZS1kYXNoYXJyYXk6Mi4wLDIuMDsiIHgxPSIyNyIgeDI9IjE1MCIgeTE9IjUwNS42OTUzIiB5Mj0iNTA1LjY5NTMiLz48dGV4dCBmaWxsPSIjMDAwMDAwIiBmb250LWZhbWlseT0ic2Fucy1zZXJpZiIgZm9udC1zaXplPSIxMyIgbGVuZ3RoQWRqdXN0PSJzcGFjaW5nIiB0ZXh0TGVuZ3RoPSI4NSIgeD0iMzkiIHk9IjUwMi4wNzAzIj4mIzQ5NjYwOyYjNTQ2MDk7JiM0Nzc5MjsgJiM1NDE2ODsmIzUxMDYwOyYjNTE2NDg7PC90ZXh0PjxyZWN0IGZpbGw9IiNFRUVFRUUiIGhlaWdodD0iMyIgc3R5bGU9InN0cm9rZTojRUVFRUVFO3N0cm9rZS13aWR0aDoxLjA7IiB3aWR0aD0iNDk1LjUiIHg9IjAiIHk9IjUzMy42NTIzIi8+PGxpbmUgc3R5bGU9InN0cm9rZTojMDAwMDAwO3N0cm9rZS13aWR0aDoxLjA7IiB4MT0iMCIgeDI9IjQ5NS41IiB5MT0iNTMzLjY1MjMiIHkyPSI1MzMuNjUyMyIvPjxsaW5lIHN0eWxlPSJzdHJva2U6IzAwMDAwMDtzdHJva2Utd2lkdGg6MS4wOyIgeDE9IjAiIHgyPSI0OTUuNSIgeTE9IjUzNi42NTIzIiB5Mj0iNTM2LjY1MjMiLz48cmVjdCBmaWxsPSIjRUVFRUVFIiBoZWlnaHQ9IjIxLjkxNDEiIHN0eWxlPSJzdHJva2U6IzAwMDAwMDtzdHJva2Utd2lkdGg6Mi4wOyIgd2lkdGg9IjE3OCIgeD0iMTU4Ljc1IiB5PSI1MjMuNjk1MyIvPjx0ZXh0IGZpbGw9IiMwMDAwMDAiIGZvbnQtZmFtaWx5PSJzYW5zLXNlcmlmIiBmb250LXNpemU9IjEzIiBmb250LXdlaWdodD0iYm9sZCIgbGVuZ3RoQWRqdXN0PSJzcGFjaW5nIiB0ZXh0TGVuZ3RoPSIxNTciIHg9IjE2NC43NSIgeT0iNTM5Ljk4NDQiPiYjNTA1MDA7JiM1MTA2MDsmIzUzNTk2OyAmIzQ0Mzk2OyYjNDc1ODg7OiAmIzQ3MDA0OyYjNDU5MjQ7ICYjNDk4Mjg7JiM1MzQ0MDsmIzUxMDY4OzwvdGV4dD48cG9seWdvbiBmaWxsPSIjMTgxODE4IiBwb2ludHM9IjEzNCw1NzEuNTIzNCwxNDQsNTc1LjUyMzQsMTM0LDU3OS41MjM0LDEzOCw1NzUuNTIzNCIgc3R5bGU9InN0cm9rZTojMTgxODE4O3N0cm9rZS13aWR0aDoxLjA7Ii8+PGxpbmUgc3R5bGU9InN0cm9rZTojMTgxODE4O3N0cm9rZS13aWR0aDoxLjA7IiB4MT0iMjIiIHgyPSIxNDAiIHkxPSI1NzUuNTIzNCIgeTI9IjU3NS41MjM0Ii8+PHRleHQgZmlsbD0iIzAwMDAwMCIgZm9udC1mYW1pbHk9InNhbnMtc2VyaWYiIGZvbnQtc2l6ZT0iMTMiIGxlbmd0aEFkanVzdD0ic3BhY2luZyIgdGV4dExlbmd0aD0iMTA1IiB4PSIyOSIgeT0iNTcxLjg5ODQiPiYjNDk4Mjg7JiM1MzQ0MDsmIzUxMDY4OyAmIzQ5MzI0OyYjNTE2NTI7ICYjNTMzNjQ7JiM0NzUzMzs8L3RleHQ+PHBvbHlnb24gZmlsbD0iIzE4MTgxOCIgcG9pbnRzPSIyNTAuNSw1OTkuNDM3NSwyNjAuNSw2MDMuNDM3NSwyNTAuNSw2MDcuNDM3NSwyNTQuNSw2MDMuNDM3NSIgc3R5bGU9InN0cm9rZTojMTgxODE4O3N0cm9rZS13aWR0aDoxLjA7Ii8+PGxpbmUgc3R5bGU9InN0cm9rZTojMTgxODE4O3N0cm9rZS13aWR0aDoxLjA7IiB4MT0iMTU2IiB4Mj0iMjU2LjUiIHkxPSI2MDMuNDM3NSIgeTI9IjYwMy40Mzc1Ii8+PHRleHQgZmlsbD0iIzAwMDAwMCIgZm9udC1mYW1pbHk9InNhbnMtc2VyaWYiIGZvbnQtc2l6ZT0iMTMiIGxlbmd0aEFkanVzdD0ic3BhY2luZyIgdGV4dExlbmd0aD0iNTkiIHg9IjE2MyIgeT0iNTk5LjgxMjUiPiYjNDk4Mjg7JiM1MzQ0MDsmIzUxMDY4OyBJRDwvdGV4dD48cG9seWdvbiBmaWxsPSIjMTgxODE4IiBwb2ludHM9IjQyOSw2MjcuMzUxNiw0MzksNjMxLjM1MTYsNDI5LDYzNS4zNTE2LDQzMyw2MzEuMzUxNiIgc3R5bGU9InN0cm9rZTojMTgxODE4O3N0cm9rZS13aWR0aDoxLjA7Ii8+PGxpbmUgc3R5bGU9InN0cm9rZTojMTgxODE4O3N0cm9rZS13aWR0aDoxLjA7IiB4MT0iMjcyLjUiIHgyPSI0MzUiIHkxPSI2MzEuMzUxNiIgeTI9IjYzMS4zNTE2Ii8+PHRleHQgZmlsbD0iIzAwMDAwMCIgZm9udC1mYW1pbHk9InNhbnMtc2VyaWYiIGZvbnQtc2l6ZT0iMTMiIGxlbmd0aEFkanVzdD0ic3BhY2luZyIgdGV4dExlbmd0aD0iODUiIHg9IjI3OS41IiB5PSI2MjcuNzI2NiI+JiM0OTgyODsmIzUzNDQwOyYjNTEwNjg7SUQgJiM1MTMxMjsmIzU0OTI0OzwvdGV4dD48cG9seWdvbiBmaWxsPSIjMTgxODE4IiBwb2ludHM9IjI4My41LDY1NS4yNjU2LDI3My41LDY1OS4yNjU2LDI4My41LDY2My4yNjU2LDI3OS41LDY1OS4yNjU2IiBzdHlsZT0ic3Ryb2tlOiMxODE4MTg7c3Ryb2tlLXdpZHRoOjEuMDsiLz48bGluZSBzdHlsZT0ic3Ryb2tlOiMxODE4MTg7c3Ryb2tlLXdpZHRoOjEuMDtzdHJva2UtZGFzaGFycmF5OjIuMCwyLjA7IiB4MT0iMjc3LjUiIHgyPSI0NDUiIHkxPSI2NTkuMjY1NiIgeTI9IjY1OS4yNjU2Ii8+PHRleHQgZmlsbD0iIzAwMDAwMCIgZm9udC1mYW1pbHk9InNhbnMtc2VyaWYiIGZvbnQtc2l6ZT0iMTMiIGxlbmd0aEFkanVzdD0ic3BhY2luZyIgdGV4dExlbmd0aD0iNzIiIHg9IjI4OS41IiB5PSI2NTUuNjQwNiI+JiM0OTY2MDsmIzU0NjA5OyYjNDc3OTI7ICYjNDc1NTM7JiM1MzM1Njs8L3RleHQ+PHBvbHlnb24gZmlsbD0iIzE4MTgxOCIgcG9pbnRzPSIxNjcsNjgzLjE3OTcsMTU3LDY4Ny4xNzk3LDE2Nyw2OTEuMTc5NywxNjMsNjg3LjE3OTciIHN0eWxlPSJzdHJva2U6IzE4MTgxODtzdHJva2Utd2lkdGg6MS4wOyIvPjxsaW5lIHN0eWxlPSJzdHJva2U6IzE4MTgxODtzdHJva2Utd2lkdGg6MS4wO3N0cm9rZS1kYXNoYXJyYXk6Mi4wLDIuMDsiIHgxPSIxNjEiIHgyPSIyNjYuNSIgeTE9IjY4Ny4xNzk3IiB5Mj0iNjg3LjE3OTciLz48dGV4dCBmaWxsPSIjMDAwMDAwIiBmb250LWZhbWlseT0ic2Fucy1zZXJpZiIgZm9udC1zaXplPSIxMyIgbGVuZ3RoQWRqdXN0PSJzcGFjaW5nIiB0ZXh0TGVuZ3RoPSI3MiIgeD0iMTczIiB5PSI2ODMuNTU0NyI+JiM0OTY2MDsmIzU0NjA5OyYjNDc3OTI7ICYjNDc1NTM7JiM1MzM1Njs8L3RleHQ+PHBvbHlnb24gZmlsbD0iIzE4MTgxOCIgcG9pbnRzPSIzMyw3MTEuMDkzOCwyMyw3MTUuMDkzOCwzMyw3MTkuMDkzOCwyOSw3MTUuMDkzOCIgc3R5bGU9InN0cm9rZTojMTgxODE4O3N0cm9rZS13aWR0aDoxLjA7Ii8+PGxpbmUgc3R5bGU9InN0cm9rZTojMTgxODE4O3N0cm9rZS13aWR0aDoxLjA7c3Ryb2tlLWRhc2hhcnJheToyLjAsMi4wOyIgeDE9IjI3IiB4Mj0iMTUwIiB5MT0iNzE1LjA5MzgiIHkyPSI3MTUuMDkzOCIvPjx0ZXh0IGZpbGw9IiMwMDAwMDAiIGZvbnQtZmFtaWx5PSJzYW5zLXNlcmlmIiBmb250LXNpemU9IjEzIiBsZW5ndGhBZGp1c3Q9InNwYWNpbmciIHRleHRMZW5ndGg9Ijg1IiB4PSIzOSIgeT0iNzExLjQ2ODgiPiYjNDk2NjA7JiM1NDYwOTsmIzQ3NzkyOyAmIzU0MTY4OyYjNTEwNjA7JiM1MTY0ODs8L3RleHQ+PCEtLVNSQz1bdFA3RElpRDA0Q1ZsLW5IM2hhTWU3V2xuODROZWxJLW1vSXZiZ012WUZhMEhlVE04SzVHZ005MlE1V2gxcTFBWElYTTRGZjZ4VUdTdHpYalF5UWZ4ZER6bGNGX0NrYk42UlVwV0dwMm1NUXF1YmktOVFIck8zZFdFdmd2MmI3bDhOTFpNaU9xOU9SbTJzX2Nia2FrRlZDZkQyZ1M4ZmF5MVp2ZENuam9SalVwYXZwR1JQSGlNRVZiZnhYZDJmZ1RnTWpnLWJlekQzUjBCRmI4UEdEaWxicWlXV3IxeTFCOEhRVWtjcGdKTW90U1pqa3FENWRFZVdMcXdqVFpTOGpaMzZHMURkWVVvdFBWVDlYSnQ5WGVucmNjREFCc2VvU3Z1ZlljQlNmOVQzSTVUTHI0MnNIY2JibzV5bFlLWVpXZVd0LV9iUW1ZQkhicjdvOFVqdElua0JiVE84YmM2RTgycUZYOUZwcVpYWVNMTWhMOUg4UE9YT2dvR0tYNWFSd1dFWUhwZy1HdTdVSkxFTXRUWUMwR0hyekR3eWxqd1Vsa1dyZjFuUlRESW1yMEMtZ0JOLUhWUlk2dWVSZ0FfLWFMVl0tLT48L2c+PC9zdmc+;" vertex="1" parent="1">
            <mxGeometry x="370" y="240" width="502" height="817" as="geometry" />
          </mxCell>
        </UserObject>
      </root>
    </mxGraphModel>
  </diagram>
</mxfile>
